<svg width="48" height="48" viewBox="0 0 48 48" xmlns="http://www.w3.org/2000/svg" xmlns:xlink="http://www.w3.org/1999/xlink"><title>Group 4</title><defs><path d="M4.598 25.652L16.265 39.13a2.48 2.48 0 0 0 3.529.25c.99-.868 1.107-2.566.247-3.566l-8.047-9.292H41.5c1.38 0 2.5-1.132 2.5-2.527 0-1.395-1.12-2.527-2.5-2.527H11.994l8.047-9.29c.86-1.001.72-2.676-.247-3.567-1.012-.935-2.67-.75-3.529.25L4.598 22.336c-.82 1.106-.774 2.35 0 3.317z" id="b"/><filter x="-17.5%" y="-15.6%" width="135%" height="143.8%" filterUnits="objectBoundingBox" id="a"><feOffset dy="2" in="SourceAlpha" result="shadowOffsetOuter1"/><feGaussianBlur stdDeviation="2" in="shadowOffsetOuter1" result="shadowBlurOuter1"/><feColorMatrix values="0 0 0 0 0.2 0 0 0 0 0.2 0 0 0 0 0.2 0 0 0 0.3 0" in="shadowBlurOuter1"/></filter></defs><g fill="none" fill-rule="evenodd"><path d="M0 0H48V48H0z"/><g fill-rule="nonzero"><use fill="#000" filter="url(#a)" xlink:href="#b"/><use fill="#FFF" fill-rule="evenodd" xlink:href="#b"/></g></g></svg>