<svg width="28" height="22" viewBox="0 0 28 22" xmlns="http://www.w3.org/2000/svg"><title>“</title><path d="M15.238 5.715c0 3.289 2.01 5.402 5.491 5.402.696 0 1.238-.156 1.625-.391-.155 3.601-3.404 6.028-6.343 6.498V22C20.884 21.53 28 18.007 28 7.516 28 3.366 25.37 0 21.27 0c-3.635 0-6.032 2.662-6.032 5.715zM0 5.715c0 3.289 2.011 5.402 5.492 5.402.696 0 1.237-.156 1.624-.391-.155 3.601-3.403 6.028-6.343 6.498V22c4.873-.47 11.99-3.993 11.99-14.484 0-4.15-2.63-7.516-6.73-7.516C2.398 0 0 2.662 0 5.715z" fill="#585858" fill-rule="evenodd"/></svg>