<?xml version="1.0" encoding="UTF-8"?>
<svg width="20px" height="20px" viewBox="0 0 20 20" version="1.1" xmlns="http://www.w3.org/2000/svg" xmlns:xlink="http://www.w3.org/1999/xlink">
    <!-- Generator: Sketch 48.2 (47327) - http://www.bohemiancoding.com/sketch -->
    <title>Artboard</title>
    <desc>Created with Sketch.</desc>
    <defs></defs>
    <g id="Page-1" stroke="none" stroke-width="1" fill="none" fill-rule="evenodd">
        <g id="Artboard" fill="#FFFFFF" fill-rule="nonzero">
            <g id="Group" transform="translate(3.000000, 1.000000)">
                <path d="M8.81233095,10.3722518 C8.7010102,10.1665914 8.54855737,9.94508199 8.40251963,10.0122518 C8.18893473,10.1099877 7.89723661,10.7424405 8.03610454,10.8235726 C8.1745951,10.9065914 8.92289699,10.5775348 8.81233095,10.3722518" id="Shape"></path>
                <path d="M7.9656808,6.34694387 C6.28929222,6.34430679 4.6870998,7.02187354 3.54203149,8.21770401 L3.54203149,0 L0,4.40983421 L0,17.9996259 L3.54203149,17.9996259 L3.54203149,12.4340497 C3.80579575,12.7087144 4.77166633,13.1920652 5.5800374,12.4277483 C6.22142101,11.8213359 6.14172244,10.8731678 6.14172244,10.8731678 C6.14172244,10.8731678 5.83507277,12.4277483 4.76787117,12.418111 C3.08091843,12.4032842 3.44297757,11.1103951 4.15760794,10.0399067 C5.08476781,8.64953193 6.00889152,8.92642074 7.01992462,8.90862868 C8.21540295,8.88787129 9.04464743,9.37937673 9.1672314,9.4509156 C9.28867682,9.52097181 10.8925153,9.4957664 11.746808,9.50651577 C12.4591612,9.51615313 12.2906557,9.82714337 12.1441621,11.0996458 C11.9980481,12.3721481 11.186641,12.5433966 9.42492339,13.2017026 C8.14974652,13.6780107 7.86852446,15.8145395 5.50299545,17.4918111 C6.27840339,17.827751 7.11740892,18.0008834 7.9656808,17.9999966 C11.2978394,17.9999966 14,15.3908662 14,12.1730996 C14,8.95570349 11.2978394,6.34694387 7.9656808,6.34694387 Z" id="Shape"></path>
            </g>
        </g>
    </g>
</svg>