<?xml version="1.0" encoding="UTF-8"?>
<svg width="142px" height="76px" viewBox="0 0 142 76" version="1.1" xmlns="http://www.w3.org/2000/svg" xmlns:xlink="http://www.w3.org/1999/xlink">
    <!-- Generator: Sketch 48.1 (47250) - http://www.bohemiancoding.com/sketch -->
    <title>logo</title>
    <desc>Created with Sketch.</desc>
    <defs></defs>
    <g id="Homepage-Copy" stroke="none" stroke-width="1" fill="none" fill-rule="evenodd" transform="translate(-189.000000, -102.000000)">
        <g id="Logo" transform="translate(188.000000, 104.000000)">
            <g id="logo" transform="translate(1.000000, 0.000000)">
                <g id="compass" transform="translate(38.999998, 4.000000)" stroke="#D95E67" stroke-linecap="square" stroke-width="2.71039988">
                    <circle id="Oval-3" cx="33.9609816" cy="33.9609816" r="33.7709904"></circle>
                    <polygon id="Path-2-Copy" transform="translate(33.960982, 34.278200) rotate(30.000000) translate(-33.960982, -34.278200) " points="25.9202696 34.5708402 33.9609816 58.8023712 42.0016936 34.5708402 33.9609816 9.75402802"></polygon>
                </g>
                <path d="M22.7224984,36.0990002 L22.8214984,37.5840001 L22.8874984,38.64 L22.8544984,39.135 L22.8214984,39.8939999 L22.7554984,40.3889999 L22.6234984,41.1809999 L22.5244984,41.7089998 L22.3924984,42.4679998 L22.2604984,42.9629998 L21.9964985,43.6559997 L21.8314985,44.1179997 L21.5344985,44.8109997 L21.3034985,45.2729996 L20.8744985,45.9329996 L20.5444985,46.3619996 L20.1484986,46.7909995 L19.7194986,47.1539995 L19.0594986,47.6819995 L18.6304987,47.9789995 L17.9704987,48.3749994 L17.5414987,48.6059994 L16.8484988,48.9359994 L16.3534988,49.1009994 L15.6274988,49.3649994 L15.1324989,49.4969994 L14.3734989,49.6289994 L13.8784989,49.7279994 L12.855499,49.7939994 L11.3374991,49.7939994 L10.5784991,49.7279994 L10.0834992,49.6949994 L8.26849928,49.4969994 L7.74049931,49.3979994 L7.44349933,49.3649994 L6.91549936,49.1999994 L6.65149937,49.1009994 L6.1234994,48.8699994 L5.39749945,48.5399994 L4.90249948,48.2429994 L4.40749951,47.9129995 L3.54949956,47.1869995 L3.18649958,46.8239995 L2.7574996,46.2629996 L2.46049962,45.8669996 L1.93249965,45.0089996 L1.63549967,44.5469997 L1.37149969,44.0519997 L1.1404997,43.5239997 L0.942499713,43.0289998 L0.81049972,42.5669998 L0.678499728,42.0719998 L0.546499736,41.3459999 L0.447499742,40.7849999 L0.381499746,40.2239999 L0.31549975,39.102 L0.282499752,38.574 L0.381499746,36.5610001 L0.381499746,36.0330002 L0.31549975,34.0200003 L0.31549975,33.4920003 L0.414499744,31.4790004 L0.414499744,28.4100006 L0.348499748,27.3540007 L0.348499748,26.7930007 L0.381499746,26.2320008 L0.48049974,25.7040008 L0.711499726,25.4070008 L1.1404997,25.3080008 L2.22949964,25.2420008 L3.48349956,25.3410008 L4.01149953,25.3410008 L5.10049946,25.3080008 L5.59549944,25.3410008 L6.35449939,25.3740008 L6.78349936,25.4730008 L7.04749935,25.7370008 L7.14649934,26.1660008 L7.17949934,26.6280007 L7.17949934,27.1230007 L7.11349934,28.4100006 L7.11349934,28.9380006 L7.21249934,30.9510005 L7.21249934,31.4790004 L7.17949934,33.4920003 L7.17949934,34.0200003 L7.08049935,36.0330002 L7.08049935,36.5610001 L7.04749935,38.574 L7.08049935,39.102 L7.14649934,39.9269999 L7.24549934,40.4549999 L7.44349933,41.1809999 L7.64149931,41.6759998 L7.97149929,42.4349998 L8.30149927,42.8309998 L8.82949924,43.3919997 L9.25849922,43.6559997 L9.98449917,43.9199997 L10.4794991,44.0519997 L11.3374991,44.1179997 L11.8654991,44.1179997 L12.723499,43.9529997 L13.218499,43.8209997 L13.8454989,43.5239997 L14.2744989,43.2599997 L14.8024989,42.7979998 L15.1324989,42.4019998 L15.4954988,41.7089998 L15.7264988,41.2139999 L15.8914988,40.6859999 L15.9904988,40.1579999 L16.1224988,39.168 L16.1554988,38.64 L16.0234988,36.6270001 L16.0234988,36.0990002 L16.1224988,34.0530003 L16.1224988,33.5250003 L16.1884988,31.5120004 L16.1884988,30.9840005 L16.1224988,28.9380006 L16.0894988,28.4100006 L15.9904988,27.0240007 L15.9904988,26.1990008 L16.1224988,25.7370008 L16.4194988,25.4730008 L16.8484988,25.3740008 L17.5414987,25.3740008 L19.2244986,25.5060008 L19.7524986,25.5060008 L21.0724985,25.4070008 L21.6004985,25.4070008 L22.0954985,25.4400008 L22.5244984,25.5390008 L22.7884984,25.7700008 L22.8214984,26.1660008 L22.8544984,27.1560007 L22.8544984,27.6510007 L22.8214984,28.4100006 L22.8214984,28.9380006 L22.9204984,30.9840005 L22.9204984,31.5120004 L22.8544984,33.5250003 L22.8544984,34.0530003 L22.7224984,36.0990002 Z M48.4234969,28.6080006 L48.3244969,30.5550005 L48.2914969,31.0830005 L48.2914969,35.9670002 L48.3904969,37.8810001 L48.3904969,38.409 L48.4564969,42.7649998 L48.4564969,43.3259997 L48.4234969,43.5899997 L48.3904969,44.1509997 L48.2914969,45.7349996 L48.3244969,47.6489995 L48.2914969,48.1109995 L48.159497,48.5069994 L47.895497,48.8699994 L47.565497,49.1009994 L47.268497,49.1999994 L46.806497,49.2329994 L45.1234971,49.2989994 L44.5954972,49.3319994 L43.7704972,49.3649994 L43.2424972,49.3649994 L42.8134973,49.2659994 L42.4174973,49.1009994 L42.0214973,48.8039994 L41.7244973,48.3749994 L41.2294974,47.4179995 L40.9324974,46.9889995 L39.6454975,45.3719996 L39.3154975,44.9759996 L38.0284976,43.3919997 L37.7314976,42.9629998 L36.5764976,41.2469999 L36.2794977,40.8509999 L34.9924977,39.267 L34.6624978,38.871 L33.4414978,37.2540001 L33.1444979,36.9900001 L32.9134979,37.0890001 L32.8144979,37.4850001 L32.7484979,39.135 L32.7484979,39.663 L32.7814979,41.3129999 L32.7814979,41.8409998 L32.8144979,43.6889997 L32.8144979,44.2169997 L32.7154979,46.0649996 L32.7484979,46.5929995 L32.9464979,47.9129995 L32.9794979,48.4409994 L32.8804979,48.8699994 L32.6494979,49.1009994 L32.4184979,49.1669994 L32.0224979,49.2329994 L31.7584979,49.2659994 L31.197498,49.2989994 L29.6794981,49.2659994 L29.1514981,49.2659994 L27.7984982,49.3319994 L27.2704982,49.3319994 L26.7754982,49.2989994 L26.4124983,49.2329994 L26.1484983,49.0679994 L26.0164983,48.8369994 L25.9504983,48.5069994 L25.9174983,48.2759994 L25.9174983,47.7809995 L25.9834983,46.6919995 L26.0164983,46.1639996 L25.9174983,44.4149997 L25.9174983,43.8869997 L25.9834983,39.8609999 L26.0164983,39.333 L26.1154983,37.5840001 L26.1484983,37.0560001 L26.1484983,34.7790003 L26.0164983,33.0300004 L26.0164983,32.5020004 L26.1484983,30.7530005 L26.1154983,30.2250005 L25.9834983,28.4430006 L25.9504983,27.9150007 L25.9504983,27.1560007 L25.9834983,26.6610007 L26.0494983,26.1660008 L26.1154983,25.8030008 L26.2144983,25.5720008 L26.4124983,25.4730008 L26.7754982,25.4070008 L27.7654982,25.3410008 L28.7554981,25.4070008 L31.230498,25.4070008 L31.6264979,25.4400008 L31.7914979,25.5720008 L31.9894979,25.8690008 L33.3754978,27.3540007 L33.7054978,27.7500007 L34.9264977,29.3340006 L35.2564977,29.7300006 L36.4774977,31.3470005 L36.8074976,31.7430004 L37.9954976,33.3930003 L38.2924975,33.7890003 L39.5464975,35.3730002 L39.8764974,35.7690002 L41.0644974,37.4190001 L41.3284974,37.6500001 L41.5924973,37.6830001 L41.8234973,37.5180001 L41.8234973,37.1550001 L41.5924973,35.7690002 L41.5594973,35.2410002 L41.6584973,33.8220003 L41.6584973,33.2940003 L41.5264974,31.2810005 L41.5264974,30.7530005 L41.6584973,28.7400006 L41.6254973,28.2120006 L41.5264974,26.9910007 L41.5264974,26.1660008 L41.6254973,25.7370008 L41.7574973,25.4730008 L41.9884973,25.3410008 L42.3844973,25.2750008 L42.6814973,25.2750008 L43.2424972,25.2420008 L44.7274972,25.3410008 L45.2554971,25.3410008 L46.3774971,25.2750008 L46.872497,25.3080008 L47.631497,25.3410008 L47.994497,25.4070008 L48.225497,25.5060008 L48.4234969,25.7370008 L48.4894969,26.1990008 L48.5224969,26.4960007 L48.5554969,27.0570007 L48.4894969,28.0800007 L48.4234969,28.6080006 Z M72.9694955,33.5910003 L72.9694955,33.8550003 L73.0024955,34.3500003 L72.9694955,34.8450002 L72.9364955,35.4060002 L72.7714955,36.2310002 L72.6724956,36.7590001 L72.4084956,37.4190001 L72.2104956,37.8810001 L71.8804956,38.508 L71.5834956,38.937 L71.1214956,39.564 L70.7584957,39.9599999 L70.3294957,40.3559999 L69.9004957,40.7189999 L69.4714957,41.0159999 L69.0094958,41.3129999 L68.2834958,41.6429998 L67.7884958,41.8739998 L67.2274959,42.1049998 L66.7324959,42.2699998 L66.0064959,42.4679998 L65.511496,42.5669998 L65.016496,42.6329998 L64.488496,42.6659998 L63.6304961,42.7319998 L60.8584963,42.7319998 L60.2974963,42.6989998 L59.7364963,42.7319998 L59.1754964,42.7979998 L58.7794964,42.8639998 L58.6804964,43.0949998 L58.6474964,43.5239997 L58.5154964,45.7349996 L58.5154964,46.2629996 L58.5484964,47.2529995 L58.5154964,47.7479995 L58.4824964,48.4739994 L58.4164964,48.8369994 L58.3174964,49.0349994 L58.1524964,49.1009994 L57.7894964,49.1669994 L56.7334965,49.2329994 L55.4464966,49.1669994 L54.9184966,49.1669994 L53.8624967,49.2329994 L53.3344967,49.1999994 L52.5754967,49.1669994 L52.1464968,49.0349994 L51.9484968,48.8369994 L51.8824968,48.4409994 L51.8164968,47.9459995 L51.7834968,47.4179995 L51.7834968,43.8869997 L51.9154968,42.1379998 L51.9154968,41.6099998 L51.7834968,39.8609999 L51.7834968,39.333 L51.7174968,35.3070002 L51.7174968,34.7790003 L51.8494968,32.9970004 L51.8494968,32.4690004 L51.7504968,30.7200005 L51.7504968,30.1920005 L51.8824968,28.4430006 L51.8824968,27.9480007 L51.8164968,26.9580007 L51.8494968,26.4630007 L51.8824968,26.1990008 L51.9484968,25.8360008 L52.0474968,25.6380008 L52.2124968,25.4730008 L52.5754967,25.4400008 L53.5324967,25.3740008 L54.2914966,25.4070008 L54.7864966,25.4070008 L56.9974965,25.3740008 L59.2084964,25.3740008 L61.4194962,25.5060008 L63.5974961,25.5060008 L64.851496,25.4400008 L65.313496,25.4730008 L65.577496,25.4730008 L66.0724959,25.5720008 L66.8314959,25.7700008 L67.3594959,25.9350008 L67.8874958,26.1330008 L68.3824958,26.3640008 L68.8774958,26.6610007 L69.3064958,26.9910007 L69.9004957,27.5190007 L70.2964957,27.8490007 L70.4614957,28.0470007 L71.0554956,28.6410006 L71.3854956,29.0700006 L71.5504956,29.2680006 L71.7814956,29.6640006 L71.9134956,29.8620005 L72.1114956,30.2910005 L72.2764956,30.7860005 L72.4084956,31.2480005 L72.4414956,31.4790004 L72.5734956,31.9410004 L72.6394956,32.2050004 L72.7714955,32.6670004 L72.9694955,33.5910003 Z M60.8584963,37.2210001 L63.1024961,37.0890001 L63.6964961,37.0230001 L64.2574961,36.8910001 L64.521496,36.7920001 L64.983496,36.5280001 L65.181496,36.3960002 L65.511496,36.0660002 L65.643496,35.8680002 L65.874496,35.4390002 L65.973496,35.2080002 L66.1054959,34.6800003 L66.1384959,34.4490003 L66.1384959,33.6240003 L66.0394959,33.1290003 L65.940496,32.8650004 L65.742496,32.4360004 L65.610496,32.2380004 L65.247496,31.8420004 L64.983496,31.6770004 L64.488496,31.4130005 L63.6304961,31.1820005 L63.1024961,31.1160005 L62.3434962,31.1160005 L61.3534962,31.1820005 L59.9014963,31.0830005 L59.4064963,31.0830005 L59.1424964,31.1160005 L58.7794964,31.1820005 L58.6474964,31.2810005 L58.5484964,31.5120004 L58.4824964,31.9080004 L58.4824964,32.6670004 L58.5814964,33.8880003 L58.6144964,34.4160003 L58.6474964,36.3300002 L58.6804964,36.7260001 L58.7794964,36.9570001 L59.1424964,37.0890001 L60.8584963,37.2210001 Z M93.3244944,46.6259995 L93.3904944,47.6489995 L93.3574944,48.1769995 L93.3574944,48.4739994 L93.2584944,48.8699994 L93.0604944,49.1009994 L92.8294944,49.1999994 L92.4994944,49.2659994 L92.2354944,49.2659994 L91.7734945,49.2989994 L88.1104947,49.1009994 L85.6354948,49.1009994 L82.665495,49.2989994 L80.7514951,49.1669994 L78.3094953,49.1669994 L76.7914954,49.2659994 L76.2964954,49.2659994 L75.8344954,49.2329994 L75.4714954,49.1669994 L75.2404955,49.0349994 L75.0754955,48.8369994 L75.0094955,48.4409994 L75.0094955,47.9129995 L75.1744955,46.6589995 L75.2074955,46.1639996 L75.0754955,44.4149997 L75.0754955,43.8869997 L75.1414955,42.1379998 L75.1414955,41.6099998 L75.2074955,37.5840001 L75.2074955,37.0560001 L75.0754955,33.0300004 L75.0754955,32.5020004 L75.0424955,30.7530005 L75.0424955,27.9480007 L74.9764955,26.9580007 L74.9764955,26.4630007 L75.0094955,26.1660008 L75.1084955,25.7370008 L75.2404955,25.5390008 L75.4714954,25.4400008 L75.8344954,25.3740008 L76.0984954,25.3740008 L76.5934954,25.3410008 L78.2104953,25.4400008 L78.7384952,25.4400008 L81.0814951,25.4070008 L81.4114951,25.4070008 L81.6424951,25.5390008 L81.8074951,25.7700008 L81.8074951,28.6410006 L81.8734951,30.5550005 L81.8734951,31.0830005 L81.7744951,32.9970004 L81.7744951,33.5250003 L81.8404951,35.4390002 L81.8404951,35.9670002 L81.9394951,37.8810001 L81.9394951,38.409 L81.7414951,42.7649998 L81.7744951,43.0949998 L81.8074951,43.2599997 L81.8734951,43.4249997 L82.0384951,43.5569997 L82.434495,43.6229997 L83.556495,43.6889997 L84.5464949,43.6229997 L85.0744949,43.6229997 L89.8264946,43.5569997 L90.3544946,43.5239997 L91.4764945,43.3919997 L92.0044945,43.3589997 L92.4994944,43.3589997 L92.8954944,43.4579997 L93.1264944,43.6559997 L93.2254944,43.8869997 L93.2584944,44.2499997 L93.2914944,46.0979996 L93.3244944,46.6259995 Z M115.725493,36.0990002 L115.824493,37.5840001 L115.890493,38.64 L115.857493,39.135 L115.824493,39.8939999 L115.758493,40.3889999 L115.626493,41.1809999 L115.527493,41.7089998 L115.395493,42.4679998 L115.263493,42.9629998 L114.999493,43.6559997 L114.834493,44.1179997 L114.537493,44.8109997 L114.306493,45.2729996 L113.877493,45.9329996 L113.547493,46.3619996 L113.151493,46.7909995 L112.722493,47.1539995 L112.062493,47.6819995 L111.633493,47.9789995 L110.973493,48.3749994 L110.544493,48.6059994 L109.851493,48.9359994 L109.356493,49.1009994 L108.630494,49.3649994 L108.135494,49.4969994 L107.376494,49.6289994 L106.881494,49.7279994 L105.858494,49.7939994 L104.340494,49.7939994 L103.581494,49.7279994 L103.086494,49.6949994 L101.271494,49.4969994 L100.743494,49.3979994 L100.446494,49.3649994 L99.918494,49.1999994 L99.6544941,49.1009994 L99.1264941,48.8699994 L98.4004941,48.5399994 L97.9054942,48.2429994 L97.4104942,47.9129995 L96.5524942,47.1869995 L96.1894943,46.8239995 L95.7604943,46.2629996 L95.4634943,45.8669996 L94.9354943,45.0089996 L94.6384944,44.5469997 L94.3744944,44.0519997 L94.1434944,43.5239997 L93.9454944,43.0289998 L93.8134944,42.5669998 L93.6814944,42.0719998 L93.5494944,41.3459999 L93.4504944,40.7849999 L93.3844944,40.2239999 L93.3184944,39.102 L93.2854944,38.574 L93.3844944,36.5610001 L93.3844944,36.0330002 L93.3184944,34.0200003 L93.3184944,33.4920003 L93.4174944,31.4790004 L93.4174944,28.4100006 L93.3514944,27.3540007 L93.3514944,26.7930007 L93.3844944,26.2320008 L93.4834944,25.7040008 L93.7144944,25.4070008 L94.1434944,25.3080008 L95.2324943,25.2420008 L96.4864942,25.3410008 L97.0144942,25.3410008 L98.1034942,25.3080008 L98.5984941,25.3410008 L99.3574941,25.3740008 L99.786494,25.4730008 L100.050494,25.7370008 L100.149494,26.1660008 L100.182494,26.6280007 L100.182494,27.1230007 L100.116494,28.4100006 L100.116494,28.9380006 L100.215494,30.9510005 L100.215494,31.4790004 L100.182494,33.4920003 L100.182494,34.0200003 L100.083494,36.0330002 L100.083494,36.5610001 L100.050494,38.574 L100.083494,39.102 L100.149494,39.9269999 L100.248494,40.4549999 L100.446494,41.1809999 L100.644494,41.6759998 L100.974494,42.4349998 L101.304494,42.8309998 L101.832494,43.3919997 L102.261494,43.6559997 L102.987494,43.9199997 L103.482494,44.0519997 L104.340494,44.1179997 L104.868494,44.1179997 L105.726494,43.9529997 L106.221494,43.8209997 L106.848494,43.5239997 L107.277494,43.2599997 L107.805494,42.7979998 L108.135494,42.4019998 L108.498494,41.7089998 L108.729494,41.2139999 L108.894494,40.6859999 L108.993494,40.1579999 L109.125493,39.168 L109.158493,38.64 L109.026493,36.6270001 L109.026493,36.0990002 L109.125493,34.0530003 L109.125493,33.5250003 L109.191493,31.5120004 L109.191493,30.9840005 L109.125493,28.9380006 L109.092493,28.4100006 L108.993494,27.0240007 L108.993494,26.1990008 L109.125493,25.7370008 L109.422493,25.4730008 L109.851493,25.3740008 L110.544493,25.3740008 L112.227493,25.5060008 L112.755493,25.5060008 L114.075493,25.4070008 L114.603493,25.4070008 L115.098493,25.4400008 L115.527493,25.5390008 L115.791493,25.7700008 L115.824493,26.1660008 L115.857493,27.1560007 L115.857493,27.6510007 L115.824493,28.4100006 L115.824493,28.9380006 L115.923493,30.9840005 L115.923493,31.5120004 L115.857493,33.5250003 L115.857493,34.0530003 L115.725493,36.0990002 Z M141.360492,35.4060002 L141.393492,35.6700002 L141.426492,36.2310002 L141.294492,38.376 L141.294492,41.4779999 L141.228492,42.8639998 L141.228492,44.8109997 L141.195492,45.1739996 L140.997492,45.5039996 L140.733492,45.9329996 L140.436492,46.3619996 L139.875492,46.9229995 L139.479492,47.2859995 L139.281492,47.4839995 L138.852492,47.7809995 L138.621492,47.9129995 L138.192492,48.1769995 L137.532492,48.5069994 L137.037492,48.7049994 L136.575492,48.8699994 L135.816492,49.1009994 L135.321492,49.2329994 L134.793492,49.3319994 L134.298492,49.4309994 L133.539492,49.5299994 L133.077492,49.5959994 L132.582492,49.6949994 L131.262492,49.8599994 L130.767492,49.8929994 L129.744492,49.8269994 L128.985492,49.7609994 L128.457492,49.6949994 L127.929492,49.5959994 L127.434492,49.4639994 L126.279493,49.1339994 L125.784493,49.0019994 L125.289493,48.8369994 L124.629493,48.6059994 L124.200493,48.3749994 L123.540493,48.0119995 L123.144493,47.7149995 L122.715493,47.4179995 L122.319493,47.0879995 L121.923493,46.7909995 L121.560493,46.4609996 L121.032493,45.9329996 L120.702493,45.5369996 L120.339493,45.0419996 L120.042493,44.5799997 L119.217493,43.0949998 L118.986493,42.5669998 L118.755493,42.0719998 L118.590493,41.5439998 L118.425493,40.9829999 L118.326493,40.4549999 L118.227493,39.8939999 L118.161493,39.366 L118.029493,38.64 L117.963493,38.1120001 L117.930493,37.6170001 L117.930493,37.1220001 L118.029493,35.6370002 L118.095493,35.3730002 L118.194493,34.8120002 L118.326493,34.2510003 L118.491493,33.7230003 L118.656493,33.1620003 L118.821493,32.6340004 L118.986493,32.1390004 L119.217493,31.6110004 L119.448493,31.0500005 L119.679493,30.5880005 L120.108493,29.9940005 L120.405493,29.5980006 L120.768493,29.1690006 L121.131493,28.7730006 L121.527493,28.4100006 L122.385493,27.6840007 L122.814493,27.3540007 L123.210493,27.0570007 L123.606493,26.7930007 L124.695493,26.1660008 L125.190493,25.8690008 L125.751493,25.6380008 L126.312493,25.4730008 L126.840492,25.3410008 L128.061492,25.1430008 L129.018492,25.0110008 L129.513492,24.9120008 L130.008492,24.8460008 L130.767492,24.7800008 L131.295492,24.7470008 L132.021492,24.8130008 L132.516492,24.8460008 L133.275492,24.9450008 L133.737492,25.0440008 L134.463492,25.1760008 L134.958492,25.3080008 L135.684492,25.5390008 L136.179492,25.7040008 L137.367492,26.2980008 L137.862492,26.5950007 L138.291492,26.8920007 L138.456492,26.9910007 L138.819492,27.2220007 L139.182492,27.4860007 L139.347492,27.6510007 L139.710492,27.9150007 L139.908492,28.0800007 L140.106492,28.3110006 L140.106492,28.5420006 L140.007492,28.7730006 L139.809492,29.0700006 L139.512492,29.4990006 L139.182492,29.8620005 L138.258492,30.7860005 L137.664492,31.3140005 L137.268492,31.6440004 L136.905492,31.9080004 L136.641492,32.1060004 L136.443492,32.2380004 L136.179492,32.2710004 L135.816492,32.0400004 L135.387492,31.7430004 L134.958492,31.4790004 L134.496492,31.2150005 L133.968492,30.9840005 L133.440492,30.7860005 L132.879492,30.6540005 L132.318492,30.5550005 L130.767492,30.4560005 L130.536492,30.4560005 L130.008492,30.4890005 L129.150492,30.5550005 L128.622492,30.6870005 L127.632492,31.1490005 L127.203492,31.4460005 L126.774492,31.7760004 L126.411493,32.1390004 L126.081493,32.5680004 L125.784493,32.9970004 L125.520493,33.4590003 L125.322493,33.9540003 L125.157493,34.4820003 L125.025493,34.9770002 L124.827493,35.9670002 L124.728493,36.4950001 L124.695493,37.0560001 L124.695493,37.6170001 L124.761493,38.409 L124.860493,38.937 L125.025493,39.696 L125.190493,40.2239999 L125.520493,41.0159999 L125.751493,41.4779999 L126.147493,42.0719998 L126.477493,42.4679998 L127.071492,43.0289998 L127.500492,43.3589997 L128.160492,43.7219997 L128.655492,43.9199997 L129.645492,44.1509997 L130.206492,44.2169997 L130.767492,44.2499997 L131.295492,44.2499997 L131.823492,44.1839997 L132.318492,44.0849997 L134.100492,43.6559997 L134.628492,43.4579997 L135.123492,43.2269997 L135.453492,42.9959998 L135.552492,42.7979998 L135.552492,42.4349998 L135.585492,42.1379998 L135.585492,41.6429998 L135.519492,40.6529999 L135.519492,40.0919999 L135.387492,39.8939999 L135.024492,39.828 L134.232492,39.828 L133.704492,39.8609999 L132.945492,39.9599999 L132.417492,39.9929999 L131.658492,39.9929999 L131.130492,39.9599999 L130.008492,39.762 L129.810492,39.696 L129.678492,39.531 L129.612492,39.135 L129.579492,38.871 L129.546492,38.343 L129.579492,37.5180001 L129.513492,36.5280001 L129.447492,36.0330002 L129.447492,35.3400002 L129.546492,34.9770002 L129.711492,34.8120002 L130.107492,34.7460003 L130.932492,34.6470003 L131.493492,34.6140003 L133.011492,34.6140003 L135.156492,34.5150003 L137.796492,34.6800003 L138.324492,34.6800003 L139.677492,34.5150003 L140.205492,34.4820003 L140.469492,34.5150003 L140.964492,34.6140003 L141.195492,34.7460003 L141.261492,34.9440002 L141.360492,35.4060002 Z" id="UNPLUG" fill="#FFFFFF"></path>
                <polygon id="Path-2-Copy-2" stroke="#D95E67" stroke-width="2.71039988" stroke-linecap="square" transform="translate(67.966917, 34.173026) rotate(30.000000) translate(-67.966917, -34.173026) " points="59.926205 34.4656665 67.966917 58.6971975 76.007629 34.4656665 67.966917 9.64885439"></polygon>
                <circle id="Oval-3-Copy" stroke="#D95E67" stroke-width="2.71039988" stroke-linecap="square" cx="68.7709882" cy="33.7709904" r="33.7709904"></circle>
            </g>
        </g>
    </g>
</svg>