<svg width="142" height="76" viewBox="0 0 142 76" xmlns="http://www.w3.org/2000/svg"><title>logo copy</title><g transform="translate(0 2)" fill="none" fill-rule="evenodd"><g transform="translate(39 4)" stroke="#D95E67" stroke-linecap="square" stroke-width="2.71"><circle cx="33.961" cy="33.961" r="33.771"/><path d="M26.851 30.511L21.7 55.517l19.079-16.965 5.445-25.512z"/></g><path d="M22.722 36.099l.1 1.485.065 1.056-.033.495-.033.759-.066.495-.132.792-.099.528-.132.759-.132.495-.264.693-.165.462-.297.693-.23.462-.43.66-.33.429-.396.429-.429.363-.66.528-.429.297-.66.396-.429.231-.693.33-.495.165-.726.264-.495.132-.759.132-.495.099-1.023.066h-1.518l-.759-.066-.495-.033-1.815-.198-.528-.099-.297-.033-.528-.165-.264-.099-.528-.231-.726-.33-.495-.297-.495-.33-.858-.726-.363-.363-.429-.561-.297-.396-.528-.858-.297-.462-.264-.495-.23-.528-.199-.495-.132-.462-.132-.495-.132-.726-.099-.561-.066-.561-.066-1.122-.033-.528.1-2.013v-.528L.314 34.02v-.528l.1-2.013V28.41l-.067-1.056v-.561l.033-.561.1-.528.23-.297.43-.099 1.088-.066 1.254.099h.528l1.09-.033.494.033.76.033.428.099.264.264.1.429.032.462v.495l-.066 1.287v.528l.1 2.013v.528l-.034 2.013v.528l-.099 2.013v.528l-.033 2.013.033.528.066.825.1.528.197.726.198.495.33.759.33.396.528.561.43.264.725.264.495.132.858.066h.528l.858-.165.495-.132.627-.297.43-.264.527-.462.33-.396.363-.693.231-.495.165-.528.1-.528.131-.99.033-.528-.132-2.013v-.528l.1-2.046v-.528l.065-2.013v-.528l-.066-2.046-.033-.528-.099-1.386v-.825l.132-.462.297-.264.43-.099h.692l1.683.132h.528l1.32-.099h.528l.495.033.43.099.263.231.033.396.033.99v.495l-.033.759v.528l.1 2.046v.528l-.067 2.013v.528l-.132 2.046zm25.701-7.491l-.099 1.947-.033.528v4.884l.1 1.914v.528l.065 4.356v.561l-.033.264-.033.561-.099 1.584.033 1.914-.033.462-.132.396-.264.363-.33.231-.297.099-.462.033-1.683.066-.528.033-.825.033h-.528l-.429-.099-.396-.165-.396-.297-.297-.429-.495-.957-.297-.429-1.287-1.617-.33-.396-1.287-1.584-.297-.429-1.155-1.716-.297-.396-1.287-1.584-.33-.396-1.22-1.617-.298-.264-.23.099-.1.396-.066 1.65v.528l.033 1.65v.528l.033 1.848v.528l-.099 1.848.033.528.198 1.32.033.528-.099.429-.23.231-.232.066-.396.066-.264.033-.56.033-1.519-.033h-.528l-1.353.066h-.528l-.495-.033-.363-.066-.264-.165-.132-.231-.066-.33-.033-.231v-.495l.066-1.089.033-.528-.099-1.749v-.528l.066-4.026.033-.528.1-1.749.032-.528v-2.277l-.132-1.749v-.528l.132-1.749-.033-.528-.132-1.782-.033-.528v-.759l.033-.495.066-.495.066-.363.1-.231.197-.099.363-.066.99-.066.99.066h2.475l.396.033.165.132.198.297 1.386 1.485.33.396 1.221 1.584.33.396 1.221 1.617.33.396 1.188 1.65.297.396 1.254 1.584.33.396 1.188 1.65.264.231.264.033.231-.165v-.363l-.23-1.386-.034-.528.1-1.419v-.528l-.133-2.013v-.528l.132-2.013-.033-.528-.099-1.221v-.825l.1-.429.131-.264.231-.132.396-.066h.297l.561-.033 1.485.099h.528l1.122-.066.495.033.76.033.362.066.231.099.198.231.066.462.033.297.033.561-.066 1.023-.066.528zm24.546 4.983v.264l.033.495-.033.495-.033.561-.165.825-.099.528-.264.66-.198.462-.33.627-.297.429-.462.627-.363.396-.429.396-.429.363-.429.297-.462.297-.726.33-.495.231-.56.231-.496.165-.726.198-.495.099-.495.066-.528.033-.858.066h-2.772l-.56-.033-.562.033-.56.066-.397.066-.099.231-.033.429-.132 2.211v.528l.033.99-.033.495-.033.726-.066.363-.099.198-.165.066-.363.066-1.056.066-1.287-.066h-.528l-1.056.066-.528-.033-.759-.033-.429-.132-.198-.198-.066-.396-.066-.495-.033-.528v-3.531l.132-1.749v-.528l-.132-1.749v-.528l-.066-4.026v-.528l.132-1.782v-.528l-.099-1.749v-.528l.132-1.749v-.495l-.066-.99.033-.495.033-.264.066-.363.1-.198.164-.165.363-.033.957-.066.76.033h.494l2.211-.033h2.211l2.211.132h2.178l1.254-.066.462.033h.264l.495.099.76.198.527.165.528.198.495.231.495.297.43.33.593.528.396.33.165.198.594.594.33.429.165.198.231.396.132.198.198.429.165.495.132.462.033.231.132.462.066.264.132.462.198.924zm-12.11 3.63l2.243-.132.594-.066.561-.132.264-.099.462-.264.198-.132.33-.33.132-.198.231-.429.1-.231.131-.528.033-.231v-.825l-.099-.495-.099-.264-.198-.429-.132-.198-.363-.396-.264-.165-.495-.264-.858-.231-.528-.066h-.759l-.99.066-1.452-.099h-.495l-.264.033-.363.066-.132.099-.099.231-.066.396v.759l.1 1.221.032.528.033 1.914.033.396.1.231.362.132 1.716.132zm32.465 9.405l.066 1.023-.033.528v.297l-.099.396-.198.231-.23.099-.33.066h-.265l-.462.033-3.663-.198h-2.475l-2.97.198-1.914-.132H78.31l-1.518.099h-.495l-.462-.033-.363-.066-.23-.132-.166-.198-.066-.396v-.528l.165-1.254.033-.495-.132-1.749v-.528l.066-1.749v-.528l.066-4.026v-.528l-.132-4.026v-.528l-.033-1.749v-2.805l-.066-.99v-.495l.033-.297.1-.429.131-.198.231-.099.363-.066h.264l.495-.033 1.617.099h.528l2.343-.033h.33l.231.132.165.231v2.871l.066 1.914v.528l-.099 1.914v.528l.066 1.914v.528l.1 1.914v.528l-.199 4.356.033.33.033.165.066.165.165.132.396.066 1.122.066.99-.066h.528l4.752-.066.528-.033 1.122-.132.528-.033h.495l.396.099.231.198.1.231.032.363.033 1.848.033.528zm22.401-10.527l.1 1.485.065 1.056-.033.495-.033.759-.066.495-.132.792-.099.528-.132.759-.132.495-.264.693-.165.462-.297.693-.23.462-.43.66-.33.429-.396.429-.429.363-.66.528-.429.297-.66.396-.429.231-.693.33-.495.165-.726.264-.495.132-.759.132-.495.099-1.023.066h-1.518l-.759-.066-.495-.033-1.815-.198-.528-.099-.297-.033-.528-.165-.264-.099-.528-.231-.726-.33-.495-.297-.495-.33-.858-.726-.363-.363-.429-.561-.297-.396-.528-.858-.297-.462-.264-.495-.23-.528-.199-.495-.132-.462-.132-.495-.132-.726-.099-.561-.066-.561-.066-1.122-.033-.528.1-2.013v-.528l-.067-2.013v-.528l.1-2.013V28.41l-.067-1.056v-.561l.033-.561.1-.528.23-.297.43-.099 1.088-.066 1.254.099h.528l1.09-.033.494.033.76.033.428.099.264.264.1.429.032.462v.495l-.066 1.287v.528l.1 2.013v.528l-.034 2.013v.528l-.099 2.013v.528l-.033 2.013.033.528.066.825.1.528.197.726.198.495.33.759.33.396.528.561.43.264.725.264.495.132.858.066h.528l.858-.165.495-.132.627-.297.43-.264.527-.462.33-.396.363-.693.231-.495.165-.528.1-.528.131-.99.033-.528-.132-2.013v-.528l.1-2.046v-.528l.065-2.013v-.528l-.066-2.046-.033-.528-.099-1.386v-.825l.132-.462.297-.264.43-.099h.692l1.683.132h.528l1.32-.099h.528l.495.033.43.099.263.231.033.396.033.99v.495l-.033.759v.528l.1 2.046v.528l-.067 2.013v.528l-.132 2.046zm25.635-.693l.033.264.033.561-.132 2.145v3.102l-.066 1.386v1.947l-.033.363-.198.33-.264.429-.297.429-.56.561-.397.363-.198.198-.429.297-.23.132-.43.264-.66.33-.495.198-.462.165-.759.231-.495.132-.528.099-.495.099-.759.099-.462.066-.495.099-1.32.165-.495.033-1.023-.066-.759-.066-.528-.066-.528-.099-.495-.132-1.155-.33-.495-.132-.495-.165-.66-.231-.429-.231-.66-.363-.396-.297-.429-.297-.396-.33-.396-.297-.363-.33-.528-.528-.33-.396-.363-.495-.297-.462-.825-1.485-.23-.528-.232-.495-.165-.528-.165-.561-.099-.528-.099-.561-.066-.528-.132-.726-.066-.528-.033-.495v-.495l.1-1.485.065-.264.1-.561.131-.561.165-.528.165-.561.165-.528.165-.495.231-.528.231-.561.231-.462.43-.594.296-.396.363-.429.363-.396.396-.363.858-.726.43-.33.395-.297.396-.264 1.09-.627.494-.297.561-.231.561-.165.528-.132 1.221-.198.957-.132.495-.099.495-.066.76-.066.527-.033.726.066.495.033.76.099.461.099.726.132.495.132.726.231.495.165 1.188.594.495.297.43.297.164.099.363.231.363.264.165.165.363.264.198.165.198.231v.231l-.099.231-.198.297-.297.429-.33.363-.924.924-.594.528-.396.33-.363.264-.264.198-.198.132-.264.033-.363-.231-.429-.297-.429-.264-.462-.264-.528-.231-.528-.198-.56-.132-.562-.099-1.55-.099h-.232l-.528.033-.858.066-.528.132-.99.462-.429.297-.429.33-.363.363-.33.429-.297.429-.264.462-.198.495-.165.528-.132.495-.198.99-.099.528-.033.561v.561l.066.792.1.528.164.759.165.528.33.792.231.462.396.594.33.396.594.561.43.33.66.363.494.198.99.231.561.066.561.033h.528l.528-.066.495-.099 1.782-.429.528-.198.495-.231.33-.231.1-.198v-.363l.032-.297v-.495l-.066-.99v-.561l-.132-.198-.363-.066h-.792l-.528.033-.759.099-.528.033h-.759l-.528-.033-1.122-.198-.198-.066-.132-.165-.066-.396-.033-.264-.033-.528.033-.825-.066-.99-.066-.495v-.693l.1-.363.164-.165.396-.066.825-.099.561-.033h1.518l2.145-.099 2.64.165h.528l1.353-.165.528-.033.264.033.495.099.231.132.066.198.1.462z" fill="#25283D"/><path stroke="#D95E67" stroke-width="2.71" stroke-linecap="square" d="M60.857 30.406l-5.152 25.006 19.08-16.965 5.444-25.513z"/><circle stroke="#D95E67" stroke-width="2.71" stroke-linecap="square" cx="68.771" cy="33.771" r="33.771"/></g></svg>