<svg width="50" height="50" viewBox="0 0 50 50" xmlns="http://www.w3.org/2000/svg"><title>Double Room</title><g transform="translate(1 1)" fill="none" fill-rule="evenodd"><path d="M11.127 26.304v11.314h.258l.262-2.017H35.48l.261 2.017H36V26.304H11.127zm22-1.397h1.209v-4.355c-7.559-2.545-14.192-2.564-21.545.002v4.353h1.208v-3.1l.432-.155c3.228-1.167 5.532-1.161 8.84-.01l.306.107.271-.097c3.23-1.167 5.533-1.162 8.84-.01l.44.154v3.111zm-9.417 0v.36l-.147.148-.147-.147v-.36h.294z" stroke="#AE8A61" stroke-width="1.309"/><path d="M23.564 0C10.556 0 0 10.557 0 23.564s10.556 23.563 23.564 23.563c13.007 0 23.563-10.556 23.563-23.563S36.571 0 23.564 0z" stroke="#AE8A61" stroke-width="1.833" stroke-linecap="square"/><path d="M19.952 7.633c.033-.032.083-.076.15-.132a4.37 4.37 0 0 1 .436-.282c.223-.133.458-.252.703-.359.245-.106.566-.203.96-.291a5.528 5.528 0 0 1 1.206-.132c1.072 0 1.905.237 2.5.712.596.474.894 1.096.894 1.865 0 .295-.042.574-.126.838-.084.264-.17.477-.258.641a2.887 2.887 0 0 1-.445.577 6.13 6.13 0 0 1-.457.45c-.096.08-.275.23-.537.452l-1.38 1.129h3.644v2.135h-6.848l-.313-1.76 2.823-2.388c.479-.4.798-.719.957-.954.16-.235.24-.482.24-.74 0-.503-.336-.754-1.007-.754-.327 0-.679.082-1.055.245a3.336 3.336 0 0 0-1.019.694l-1.068-1.946z" fill="#AE8A61"/></g></svg>