<svg width="50" height="50" viewBox="0 0 50 50" xmlns="http://www.w3.org/2000/svg"><title>SPA Icon</title><g transform="translate(1 1)" fill="none" fill-rule="evenodd"><path d="M24 0C10.752 0 0 10.752 0 24s10.752 24 24 24 24-10.752 24-24S37.248 0 24 0z" stroke="#AE8A61" stroke-width="1.867" stroke-linecap="square"/><path d="M24.337 4.574v.004a.571.571 0 0 0-.346.987c.222.215.387.6.386 1.018 0 .415-.168.797-.39 1.01a.571.571 0 0 0-.018.014.572.572 0 0 0-.043.051c-.452.467-.689 1.11-.687 1.786.002.7.256 1.371.743 1.837a.572.572 0 0 0 .79-.828c-.223-.213-.39-.594-.39-1.011-.001-.417.161-.8.384-1.016a.571.571 0 0 0 .01-.01c.012-.012.02-.024.03-.034a.571.571 0 0 0 .036-.045c.44-.461.676-1.092.678-1.757.002-.7-.247-1.37-.732-1.839a.571.571 0 0 0-.45-.167zM10.835 10.32a.571.571 0 0 0-.355.125 3.428 3.428 0 0 0 .045 5.451 2.283 2.283 0 0 1-.016 3.616.572.572 0 1 0 .694.909 3.43 3.43 0 0 0 1.344-2.712 3.43 3.43 0 0 0-1.252-2.65.571.571 0 0 0-.052-.049c-.008-.011-.014-.015-.022-.022a2.284 2.284 0 0 1-.04-3.64.571.571 0 0 0-.346-1.028zm13.426 3.404a6.725 6.725 0 0 0-1.515.099c-2.989.545-5.605 3.138-5.605 6.893v8.928c-3.933.333-7.019.917-8.987 1.67-.987.377-1.709.772-2.136 1.35-.214.29-.341.66-.297 1.03.044.37.243.693.516.966.544.545 1.38.94 2.48 1.306 1.1.364 2.465.675 4.04.935 3.148.518 7.13.82 11.397.812 4.267-.011 8.22-.322 11.326-.852 1.553-.265 2.894-.582 3.966-.951 1.072-.37 1.88-.768 2.393-1.33.257-.282.434-.625.447-.998.013-.374-.145-.726-.375-1.005-.461-.558-1.206-.949-2.221-1.321-1.973-.724-5.017-1.284-8.835-1.607V20.57c0-3.587-2.315-5.73-5.08-6.578a6.293 6.293 0 0 0-1.514-.268zm-.065 1.137a5.27 5.27 0 0 1 1.244.223c.435.133.84.303 1.23.495a7.991 7.991 0 0 1-8.35 4.525c.304-3.397 3.11-5.4 5.876-5.243zm11.822.046a.571.571 0 0 0-.344 1.03 2.284 2.284 0 0 1-.04 3.645 3.428 3.428 0 0 0 .018 5.43.571.571 0 1 0 .694-.906 2.286 2.286 0 0 1-.011-3.623.572.572 0 0 0 .022-.013 3.43 3.43 0 0 0 .018-5.433.571.571 0 0 0-.357-.125v-.005zm-8.37 1.266c1.09.813 1.833 1.991 2.008 3.645a7.98 7.98 0 0 1-3.16-1.85 9.084 9.084 0 0 0 1.151-1.795zm-1.927 2.634c.46.435.964.81 1.498 1.138.81 2.046.482 4.631-.766 6.177-.64.792-1.406 1.207-2.172 1.29-.765.082-1.549-.157-2.263-.79-1.278-1.133-1.93-3.303-1.6-5.36a9.172 9.172 0 0 0 5.303-2.455zm2.902 1.846c.355.142.717.256 1.09.353v9.85H27.35c-.331 0-.482-.08-.613-.207-.132-.129-.244-.348-.32-.654-.146-.596-.126-1.453-.125-2.195.378-.262.737-.57 1.052-.96 1.327-1.643 1.767-4.014 1.279-6.187zm-10.34.596a9.2 9.2 0 0 0 .967.067c-.315 2.34.41 4.742 2.011 6.16.148.132.31.232.467.34-.001.7-.014 1.543-.179 2.15-.086.314-.21.552-.341.687-.132.135-.258.203-.534.203h-2.39V21.25zm4.579 7.134c.505.158 1.026.22 1.542.165.252-.027.5-.088.746-.165-.005.598.002 1.25.158 1.884.107.433.287.863.63 1.199.342.335.845.533 1.412.533h3.242c.83 0 1.406.547 1.406 1.143v3.024a77.431 77.431 0 0 1-7.846.404 75.997 75.997 0 0 1-8.154-.404v-3.024c0-.596.578-1.143 1.408-1.143h3.268c.54 0 1.027-.215 1.353-.55.326-.333.508-.752.625-1.182.171-.63.201-1.284.21-1.884zm-5.721 2.408v.09c-1.246.119-2.286 1.044-2.286 2.26v2.896a51.006 51.006 0 0 1-1.913-.263c-1.533-.253-2.85-.556-3.866-.893-1.017-.337-1.731-.729-2.031-1.03-.15-.15-.184-.245-.19-.294-.006-.05-.005-.096.082-.214.175-.236.735-.622 1.625-.962 1.76-.673 4.758-1.26 8.579-1.59zm13.714.012c3.71.32 6.661.876 8.44 1.529.923.338 1.526.725 1.736.98.105.127.113.188.112.234-.002.046-.02.125-.15.268-.26.285-.935.68-1.92 1.02-.984.34-2.275.648-3.785.906-.67.114-1.397.213-2.147.306v-2.9c0-1.217-1.04-2.143-2.286-2.26v-.083z" fill="#AE8A61" fill-rule="nonzero"/></g></svg>