<svg width="50" height="51" viewBox="0 0 50 51" xmlns="http://www.w3.org/2000/svg"><title>Special Dinner</title><g transform="translate(1 1)" fill="none" fill-rule="evenodd"><path d="M22.838 13.462c0 .382.32.693.713.693.393 0 .713-.31.713-.693 0-.218.065-.294.24-.496.228-.264.573-.664.573-1.387s-.345-1.123-.573-1.388c-.175-.202-.24-.277-.24-.495 0-.219.065-.294.24-.496.228-.264.573-.665.573-1.388a.704.704 0 0 0-.713-.693.704.704 0 0 0-.713.693c0 .219-.065.294-.24.496-.228.265-.573.664-.573 1.388 0 .723.345 1.123.573 1.387.175.202.24.278.24.496 0 .218-.065.294-.24.495-.228.265-.573.664-.573 1.388zm3.168 1.54c0 .383.32.694.713.694.394 0 .713-.311.713-.694 0-.218.065-.293.24-.495.228-.264.573-.664.573-1.387s-.345-1.123-.573-1.388c-.175-.202-.24-.277-.24-.496 0-.218.065-.293.24-.495.228-.265.573-.665.573-1.388a.704.704 0 0 0-.713-.694.704.704 0 0 0-.713.694c0 .218-.065.294-.24.496-.228.264-.573.664-.573 1.387 0 .724.345 1.123.574 1.388.174.202.24.278.24.496 0 .218-.066.293-.24.495-.228.264-.574.664-.574 1.387zm-6.336 0c0 .383.319.694.712.694.394 0 .713-.311.713-.694 0-.218.066-.293.24-.495.228-.264.573-.664.573-1.387s-.345-1.123-.573-1.388c-.174-.202-.24-.277-.24-.496 0-.218.066-.293.24-.495.228-.265.573-.665.573-1.388a.704.704 0 0 0-.712-.694.704.704 0 0 0-.713.694c0 .218-.066.294-.24.496-.228.264-.573.664-.573 1.387 0 .724.345 1.123.573 1.388.174.202.24.278.24.496 0 .218-.066.293-.24.495-.228.264-.573.664-.573 1.387z" fill="#AE8A61" fill-rule="nonzero"/><g transform="translate(8 15.526)" fill="#AE8A61" fill-rule="nonzero"><path d="M.017 16.653v2.07c0 .384.32.694.713.694h1.344l1.226 1.84a.719.719 0 0 0 .598.317h24.118c.241 0 .467-.119.598-.316l1.226-1.84h1.344c.393 0 .713-.311.713-.694v-2.07a.704.704 0 0 0-.713-.694h-1.757c-.325-6.252-5.171-11.363-11.415-12.295.221-.354.35-.767.35-1.21 0-1.291-1.078-2.34-2.405-2.34-1.327 0-2.407 1.049-2.407 2.34 0 .443.13.856.351 1.21-6.243.932-11.09 6.043-11.415 12.295H.73a.703.703 0 0 0-.713.693zm16.92-14.199c0 .526-.44.954-.98.954s-.98-.428-.98-.954c0-.525.44-.953.98-.953s.98.428.98.953zM3.774 19.417H28.14l-.513.77H4.286l-.513-.77zm-2.33-2.07h1.74c.393 0 .713-.31.713-.694l-.001-.038c0-6.455 5.41-11.717 12.062-11.717 6.65 0 12.062 5.262 12.062 11.73 0 .383.319.719.712.719h1.74v.684H1.443v-.684z"/><path d="M15.875 6.539c.844 0 .91.542.91.708 0 .37-.325.679-.704.697a2.826 2.826 0 0 1-.124.002.736.736 0 0 1-.085-.005c-.738-.087-.742-.638-.735-.748.023-.366.361-.654.738-.654zm2.717.352c3.737.96 6.578 3.837 7.414 7.508a.694.694 0 0 1-.542.827.709.709 0 0 1-.85-.527c-.71-3.114-3.216-5.653-6.387-6.468a.691.691 0 0 1-.507-.847c.1-.37.49-.59.872-.493z"/></g><path fill="#AE8A61" fill-rule="nonzero" d="M21.76 32.4184211L24 30.8429062 26.24 32.4184211 25.36 29.8188215 27.6 28.2433066 24.88 28.2433066 24 25.6437071 23.12 28.2433066 20.4 28.2433066 22.64 29.8188215z"/><path d="M24 .342C10.752.342 0 11.165 0 24.5s10.752 24.158 24 24.158S48 37.835 48 24.5 37.248.342 24 .342z" stroke="#AE8A61" stroke-width="1.848" stroke-linecap="square"/></g></svg>