<svg width="50" height="50" viewBox="0 0 50 50" xmlns="http://www.w3.org/2000/svg"><title>Transfer</title><g transform="translate(1 1)" fill="none" fill-rule="evenodd"><path d="M12 13.49v23.668h3.999c0-.92-.014-1.853-.014-2.772a277.506 277.506 0 0 1 16.03 0c0 .92-.014 1.853-.014 2.772H36V13.489a28.522 28.522 0 0 0-24 0zm2.668 1.733a25.426 25.426 0 0 1 7.998-1.713v7.866h-7.998v-6.153zm2 15.36c-1.11 0-2-.884-2-1.972 0-1.095.897-1.972 2-1.972s2 .884 2 1.972-.89 1.972-2 1.972zm10.004 1.312h-5.337v-2.631h5.337v2.631zm0-5.256h-5.337v-2.631h5.337v2.631zm4.667 3.944c-1.11 0-1.999-.884-1.999-1.972 0-1.095.897-1.972 2-1.972 1.102 0 1.999.884 1.999 1.972s-.897 1.972-2 1.972zm2-9.207h-8.005V13.51c2.732.134 5.45.71 7.998 1.713v6.153h.007z" fill="#AE8A61" fill-rule="nonzero"/><path d="M24 .316C10.752.316 0 10.926 0 24c0 13.074 10.752 23.684 24 23.684S48 37.074 48 24C48 10.926 37.248.316 24 .316z" stroke="#AE8A61" stroke-width="1.833" stroke-linecap="square"/></g></svg>