<svg width="50" height="50" viewBox="0 0 50 50" xmlns="http://www.w3.org/2000/svg"><title>Double Room</title><g transform="translate(1 1)" fill="none" fill-rule="evenodd"><path d="M11.127 26.304v11.314h.258l.262-2.017H35.48l.261 2.017H36V26.304H11.127zm22-1.397h1.209v-4.355c-7.559-2.545-14.192-2.564-21.545.002v4.353h1.208v-3.1l.432-.155c3.228-1.167 5.532-1.161 8.84-.01l.306.107.271-.097c3.23-1.167 5.533-1.162 8.84-.01l.44.154v3.111zm-9.417 0v.36l-.147.148-.147-.147v-.36h.294z" stroke="#AE8A61" stroke-width="1.309"/><path d="M23.564 0C10.556 0 0 10.557 0 23.564s10.556 23.563 23.564 23.563c13.007 0 23.563-10.556 23.563-23.563S36.571 0 23.564 0z" stroke="#AE8A61" stroke-width="1.833" stroke-linecap="square"/><path d="M19.952 13.978l1.197-1.693c.258.31.592.545 1.003.702.411.158.789.237 1.132.237.295 0 .55-.075.767-.224.217-.15.326-.346.326-.59 0-.243-.088-.43-.264-.56-.176-.132-.411-.197-.706-.197h-.877V9.769h.877c.503 0 .755-.21.755-.63 0-.418-.293-.628-.878-.628-.72 0-1.41.231-2.074.693l-.945-1.822c.896-.63 1.974-.945 3.234-.945.912 0 1.695.218 2.347.653.653.436.98 1.016.98 1.74 0 .855-.365 1.46-1.093 1.816.409.127.742.366 1 .718s.387.763.387 1.234c0 .601-.181 1.118-.543 1.55a3.11 3.11 0 0 1-1.347.938 5.113 5.113 0 0 1-1.755.292c-.847 0-1.576-.138-2.188-.412-.612-.274-1.056-.603-1.335-.988z" fill="#AE8A61"/></g></svg>