<svg width="1439" height="168" viewBox="0 0 1439 168" xmlns="http://www.w3.org/2000/svg"><title>Line</title><path d="M0 100.306c39.438-3.74 66.026-2.923 79.764 2.452 20.606 8.063 38.492 15.742 57.797 12.92 19.304-2.823 42.833-35.752 68.287-29.191 17.363 4.474 31.77-37.44 89.613-56.498 26.959-8.883 28.323-26.149 105.704-15.19C413.035 16.481 426.575 35.576 431 47c8.773 22.648-6.72 52.465 0 80 1.25 5.126 3.857 13.988 6.897 18.57 10.237 15.428 32.065 2.415 62.561 2.175 27.21-.215 65.12 28.302 97.62 14.739 8.793-3.67 23.14-19.704 25.922-35.484 4.48-25.404-5.443-57.076 0-80 1.768-7.446 7.413-15.964 10.378-19.91 17.765-23.641 36.21-.003 51.156 0 17.175.003 71.082-22.968 84.684-16.606 3.685 1.724 30.572 1.143 39.496 16.606C812.56 32.02 815.836 40.267 817 47c4.23 24.468-8.233 55.24 0 80 3.126 9.4 15.807 19.558 23.89 25.749 14.22 10.892 69.588 0 90.944 0 28.711 0 66.849-12.73 78.166-25.749 20.853-23.988 0-55.285 0-80 0-4.116 12.224-26.597 19.182-29.724 28.163-12.66 78.13-29.637 90.27 4.142 15.937 44.345 82.108 25.548 92.68 40.199 15.894 22.024 41.527 34.085 56.465 38.689 24.97 7.695 83.524 12.098 104.976 12.098 14.302 0 36.444-8.468 66.427-25.404" stroke-width="3" stroke="#585858" fill="none" stroke-linecap="round" stroke-dasharray="5,5,5" stroke-linejoin="round"/></svg>