<svg width="60" height="20" viewBox="0 0 60 20" xmlns="http://www.w3.org/2000/svg"><title>logo</title><g fill="#FFF"><path d="M8.452 11.23c-.111-.207-.264-.428-.41-.36-.213.097-.505.73-.366.81.138.083.887-.246.776-.45"/><path d="M7.92 7.162a6.01 6.01 0 0 0-4.398 1.904V.7L0 5.19v13.835h3.522v-5.667c.262.28 1.223.772 2.026-.006.638-.617.559-1.583.559-1.583s-.305 1.583-1.366 1.573c-1.678-.015-1.318-1.331-.607-2.42.922-1.416 1.84-1.134 2.846-1.153 1.189-.02 2.013.48 2.135.553.12.07 1.716.045 2.565.056.708.01.54.327.395 1.622-.145 1.295-.952 1.47-2.704 2.14-1.268.485-1.547 2.66-3.9 4.368a6.023 6.023 0 0 0 2.45.517c3.313 0 6-2.656 6-5.932 0-3.276-2.687-5.931-6-5.931zm9.572 11.75c0 .146.118.279.28.279h3.65c1.75 0 3.208-1.192 3.208-2.84 0-1.354-1.192-2.076-1.972-2.4.691-.367 1.707-1.191 1.707-2.325 0-1.545-1.428-2.737-3.164-2.737h-3.43a.28.28 0 0 0-.279.28v9.742zm2.296-5.843v-2.06h1.148c.56 0 1.03.411 1.03 1s-.47 1.06-1.03 1.06h-1.148zm0 4.017v-2.104h1.192c.574 0 1.207.441 1.207 1.03 0 .603-.486 1.074-1.06 1.074h-1.34zm5.956 1.825c0 .147.118.28.28.28h6.093a.28.28 0 0 0 .28-.28v-1.604a.28.28 0 0 0-.28-.28H28.04v-1.986h3.355a.28.28 0 0 0 .28-.28v-1.604a.29.29 0 0 0-.28-.28H28.04v-1.825h4.077a.28.28 0 0 0 .28-.28V9.168a.28.28 0 0 0-.28-.28h-6.093a.28.28 0 0 0-.28.28v9.743zm7.87 0c0 .147.117.28.28.28h5.533a.28.28 0 0 0 .28-.28v-1.604a.28.28 0 0 0-.28-.28h-3.503V9.169a.29.29 0 0 0-.28-.28h-1.75a.28.28 0 0 0-.28.28v9.743zm7.143-.073c0 .191.147.353.353.353h1.722a.358.358 0 0 0 .353-.353v-4.386l3.4 4.62c.029.045.161.104.264.104h2.031c.28 0 .442-.324.28-.545l-3.753-4.886 3.444-4.312c.162-.22.015-.544-.265-.544h-1.854a.437.437 0 0 0-.28.147l-3.267 4.076v-3.87a.358.358 0 0 0-.353-.353H41.11a.349.349 0 0 0-.353.353v9.595zm9.585.353h1.618a.548.548 0 0 0 .53-.353l.53-1.178h4.003l.53 1.163c.132.28.25.368.515.368h1.634c.22 0 .338-.191.25-.383l-4.607-9.904a.299.299 0 0 0-.25-.162h-.147a.299.299 0 0 0-.25.162l-4.607 9.904c-.088.192.03.383.25.383zm3.561-3.532l1.104-2.428h.015l1.118 2.428h-2.237z"/></g></svg>