<?xml version="1.0" encoding="UTF-8"?>
<svg width="60px" height="20px" viewBox="0 0 60 20" version="1.1" xmlns="http://www.w3.org/2000/svg" xmlns:xlink="http://www.w3.org/1999/xlink">
    <!-- Generator: Sketch 48 (47235) - http://www.bohemiancoding.com/sketch -->
    <title>logo</title>
    <desc>Created with Sketch.</desc>
    <defs></defs>
    <g id="sign-of-belka" stroke="none" stroke-width="1" fill="none" fill-rule="evenodd" transform="translate(-80.000000, -7.000000)">
        <g id="logo" transform="translate(80.000000, 7.000000)" fill="#FFFFFF" fill-rule="nonzero">
            <g transform="translate(0.000000, 0.700000)" id="Shape">
                <path d="M8.45207547,10.5290566 C8.34075472,10.3233962 8.18830189,10.1018868 8.04226415,10.1690566 C7.82867925,10.2667925 7.53698113,10.8992453 7.67584906,10.9803774 C7.81433962,11.0633962 8.56264151,10.7343396 8.45207547,10.5290566"></path>
                <path d="M7.92037736,6.46150943 C6.25352295,6.45882475 4.66044272,7.14862193 3.52188679,8.36603774 L3.52188679,0 L0,4.48943396 L0,18.3245283 L3.52188679,18.3245283 L3.52188679,12.6584906 C3.78415094,12.9381132 4.7445283,13.4301887 5.54830189,12.6520755 C6.18603774,12.034717 6.10679245,11.069434 6.10679245,11.069434 C6.10679245,11.069434 5.80188679,12.6520755 4.74075472,12.6422642 C3.06339623,12.6271698 3.42339623,11.3109434 4.13396226,10.2211321 C5.05584906,8.80566038 5.97471698,9.08754717 6.98,9.06943396 C8.16867925,9.04830189 8.99320755,9.54867925 9.11509434,9.62150943 C9.23584906,9.69283019 10.830566,9.66716981 11.68,9.67811321 C12.3883019,9.68792453 12.2207547,10.0045283 12.0750943,11.3 C11.9298113,12.5954717 11.1230189,12.7698113 9.37132075,13.44 C8.10339623,13.9249057 7.82377358,16.1 5.47169811,17.8075472 C6.24269605,18.149551 7.07692988,18.3258085 7.92037736,18.3249057 C11.2335849,18.3249057 13.9203774,15.6686792 13.9203774,12.3928302 C13.9203774,9.11735849 11.2335849,6.46150943 7.92037736,6.46150943 Z M17.4920755,18.2113208 C17.4920755,18.3584906 17.6098113,18.4909434 17.7716981,18.4909434 L21.4215094,18.4909434 C23.1728302,18.4909434 24.6298113,17.2988679 24.6298113,15.650566 C24.6298113,14.2966038 23.4377358,13.5754717 22.6577358,13.2516981 C23.349434,12.8837736 24.3649057,12.0596226 24.3649057,10.9264151 C24.3649057,9.38113208 22.9373585,8.1890566 21.2007547,8.1890566 L17.7716981,8.1890566 C17.6975069,8.18895628 17.6263254,8.21838422 17.5738643,8.2708454 C17.5214031,8.32330658 17.4919751,8.394488 17.4920755,8.46867925 L17.4920755,18.2113208 Z M19.7879245,12.3686792 L19.7879245,10.3083019 L20.9358491,10.3083019 C21.4950943,10.3083019 21.9660377,10.7203774 21.9660377,11.3090566 C21.9660377,11.8977358 21.4950943,12.3686792 20.9358491,12.3686792 L19.7879245,12.3686792 Z M19.7879245,16.3864151 L19.7879245,14.2818868 L20.98,14.2818868 C21.5539623,14.2818868 22.1867925,14.7233962 22.1867925,15.3120755 C22.1867925,15.9154717 21.7011321,16.3864151 21.1271698,16.3864151 L19.7879245,16.3864151 Z M25.7441509,18.2113208 C25.7441509,18.3584906 25.8618868,18.4909434 26.0237736,18.4909434 L32.1166038,18.4909434 C32.190795,18.4910437 32.2619764,18.4616158 32.3144376,18.4091546 C32.3668988,18.3566934 32.3963267,18.285512 32.3962264,18.2113208 L32.3962264,16.6071698 C32.3963267,16.5329786 32.3668988,16.4617971 32.3144376,16.409336 C32.2619764,16.3568748 32.190795,16.3274468 32.1166038,16.3275472 L28.04,16.3275472 L28.04,14.3407547 L31.3954717,14.3407547 C31.4696629,14.340855 31.5408444,14.3114271 31.5933055,14.2589659 C31.6457667,14.2065047 31.6751947,14.1353233 31.6750943,14.0611321 L31.6750943,12.4566038 C31.6700142,12.3043263 31.5477491,12.1820612 31.3954717,12.1769811 L28.04,12.1769811 L28.04,10.3520755 L32.1166038,10.3520755 C32.190795,10.3521758 32.2619764,10.3227479 32.3144376,10.2702867 C32.3668988,10.2178255 32.3963267,10.1466441 32.3962264,10.0724528 L32.3962264,8.46830189 C32.3963267,8.39411064 32.3668988,8.32292922 32.3144376,8.27046804 C32.2619764,8.21800686 32.190795,8.18857892 32.1166038,8.18867925 L26.0237736,8.18867925 C25.9495823,8.18857892 25.8784009,8.21800686 25.8259397,8.27046804 C25.7734786,8.32292922 25.7440506,8.39411064 25.7441509,8.46830189 L25.7441509,18.2109434 L25.7441509,18.2113208 Z M33.6135849,18.2113208 C33.6135849,18.3584906 33.7313208,18.4909434 33.8932075,18.4909434 L39.4267925,18.4909434 C39.5009837,18.4910437 39.5721651,18.4616158 39.6246263,18.4091546 C39.6770875,18.3566934 39.7065154,18.285512 39.7064151,18.2113208 L39.7064151,16.6071698 C39.7065154,16.5329786 39.6770875,16.4617971 39.6246263,16.409336 C39.5721651,16.3568748 39.5009837,16.3274468 39.4267925,16.3275472 L35.9241509,16.3275472 L35.9241509,8.46830189 C35.9190708,8.31602444 35.7968057,8.19375935 35.6445283,8.18867925 L33.8932075,8.18867925 C33.8190163,8.18857892 33.7478349,8.21800686 33.6953737,8.27046804 C33.6429125,8.32292922 33.6134846,8.39411064 33.6135849,8.46830189 L33.6135849,18.2109434 L33.6135849,18.2113208 Z M40.7566038,18.1377358 C40.7566038,18.3290566 40.9037736,18.4909434 41.1098113,18.4909434 L42.8316981,18.4909434 C43.0256655,18.488304 43.1822663,18.3317032 43.1849057,18.1377358 L43.1849057,13.7516981 L46.5845283,18.3728302 C46.6139623,18.4169811 46.7464151,18.4758491 46.849434,18.4758491 L48.8803774,18.4758491 C49.16,18.4758491 49.3218868,18.1520755 49.16,17.9313208 L45.4071698,13.045283 L48.8509434,8.73320755 C49.0128302,8.51245283 48.8656604,8.18867925 48.5860377,8.18867925 L46.7316981,8.18867925 C46.6433962,8.18867925 46.5109434,8.26226415 46.4520755,8.33584906 L43.1849057,12.4124528 L43.1849057,8.54188679 C43.1822663,8.34791943 43.0256655,8.19131862 42.8316981,8.18867925 L41.1098113,8.18867925 C41.0157633,8.1874497 40.9252074,8.22426757 40.8586998,8.29077524 C40.7921921,8.3572829 40.7553742,8.44783879 40.7566038,8.54188679 L40.7566038,18.1373585 L40.7566038,18.1377358 Z M50.3415094,18.4909434 L51.9603774,18.4909434 C52.254717,18.4909434 52.4166038,18.3143396 52.4901887,18.1377358 L53.02,16.9603774 L57.0230189,16.9603774 L57.5528302,18.1230189 C57.685283,18.4026415 57.8030189,18.4909434 58.0679245,18.4909434 L59.7015094,18.4909434 C59.9222642,18.4909434 60.04,18.2996226 59.9516981,18.1083019 L55.345283,8.20377358 C55.3011321,8.1154717 55.1981132,8.04188679 55.0950943,8.04188679 L54.9479245,8.04188679 C54.8449057,8.04188679 54.7418868,8.1154717 54.6977358,8.20377358 L50.0913208,18.1083019 C50.0030189,18.2996226 50.1207547,18.4909434 50.3415094,18.4909434 Z M53.9030189,14.9588679 L55.0067925,12.530566 L55.0215094,12.530566 L56.14,14.9588679 L53.9030189,14.9588679 Z"></path>
            </g>
        </g>
    </g>
</svg>