<?xml version="1.0" encoding="UTF-8"?>
<svg width="1440px" height="61px" viewBox="0 0 1440 61" version="1.1" xmlns="http://www.w3.org/2000/svg" xmlns:xlink="http://www.w3.org/1999/xlink">
    <!-- Generator: Sketch 47.1 (45422) - http://www.bohemiancoding.com/sketch -->
    <title>Shape</title>
    <desc>Created with Sketch.</desc>
    <defs></defs>
    <g id="Mockups-Max" stroke="none" stroke-width="1" fill="none" fill-rule="evenodd">
        <g id="Desktop---Version-2" transform="translate(0.000000, -3459.000000)" fill-rule="nonzero" fill="#FFFFFF">
            <g id="The-location" transform="translate(0.000000, 2357.000000)">
                <g id="The-refuge">
                    <g id="Group-23" transform="translate(-160.000000, 877.000000)">
                        <g id="Group-19" transform="translate(160.000000, 225.000000)">
                            <path d="M1439.97364,26.1681626 C1440.76523,26.425893 1423.49418,21.878453 1419.53623,20.8839779 C1415.57829,19.8895028 1401.4736,18.7955801 1398.30724,18.7955801 C1395.14088,18.7955801 1380.2446,18.7955801 1377.07824,18.7955801 C1373.91188,18.7955801 1363.69318,18.7955801 1361.39037,18.7955801 C1359.0156,18.7955801 1355.92121,18.7955801 1354.33803,18.7955801 C1352.75485,18.7955801 1350.38008,20.8839779 1348.86886,20.8839779 C1347.28568,20.8839779 1329.22305,20.8839779 1326.05669,21.878453 C1322.89033,22.8729282 1316.62957,23.9668508 1314.2548,22.8729282 C1311.88003,21.878453 1307.20246,20.7845304 1305.61928,20.7845304 C1304.0361,20.7845304 1300.15011,20.7845304 1298.56693,20.7845304 C1296.98376,20.7845304 1294.60899,20.7845304 1293.09777,21.7790055 C1291.51459,22.7734807 1286.83701,23.8674033 1286.04542,24.8618785 C1285.25384,25.8563536 1277.4099,26.9502762 1274.24354,26.9502762 C1271.07718,26.9502762 1257.76408,30.0331492 1253.01455,31.1270718 C1248.33697,32.121547 1242.00425,33.2154696 1239.62948,33.2154696 C1237.25471,33.2154696 1233.36873,34.2099448 1231.78555,35.3038674 C1230.20237,36.2983425 1226.31638,37.3922652 1223.15002,37.3922652 C1219.98367,37.3922652 1212.93132,38.3867403 1209.76496,39.480663 C1206.5986,40.4751381 1203.50421,40.4751381 1201.12944,40.4751381 C1198.75467,40.4751381 1192.49391,41.4696133 1190.11914,41.4696133 C1187.74438,41.4696133 1183.0668,44.5524862 1180.69203,44.5524862 C1178.31726,44.5524862 1176.01446,43.558011 1173.63969,44.5524862 C1171.26492,45.5469613 1166.58734,47.6353591 1165.79575,47.6353591 C1165.00416,47.6353591 1163.42098,46.640884 1161.11818,46.640884 C1158.74341,46.640884 1154.06583,46.640884 1150.89947,44.5524862 C1147.73311,42.4640884 1144.63872,41.4696133 1143.05554,41.4696133 C1141.47236,41.4696133 1137.58637,39.3812155 1135.2116,39.3812155 C1132.83683,39.3812155 1129.74244,39.3812155 1128.95085,38.3867403 C1128.15926,37.3922652 1126.57608,33.2154696 1124.9929,34.2099448 C1123.40972,35.2044199 1121.82654,36.2983425 1120.31533,36.2983425 C1118.73215,36.2983425 1116.35738,38.3867403 1114.84616,38.3867403 C1113.26298,38.3867403 1107.00223,40.4751381 1106.21064,41.4696133 C1105.41905,42.4640884 1103.04428,42.4640884 1101.53306,42.4640884 C1100.02184,42.4640884 1096.85548,44.5524862 1095.27231,44.5524862 C1093.68913,44.5524862 1091.31436,46.640884 1090.59473,45.5469613 C1089.80314,44.5524862 1088.21996,44.5524862 1087.42837,44.5524862 C1086.63678,44.5524862 1085.0536,47.6353591 1084.26201,46.640884 C1083.47042,45.6464088 1081.88724,45.6464088 1080.30406,45.6464088 C1078.72088,45.6464088 1077.1377,43.558011 1074.04331,43.558011 C1070.94891,43.558011 1068.57414,43.558011 1066.19937,43.558011 C1063.8246,43.558011 1060.73021,43.558011 1058.35544,43.558011 C1055.98067,43.558011 1051.3031,44.5524862 1049.71992,43.558011 C1048.13674,42.5635359 1046.55356,41.4696133 1045.04234,41.4696133 C1043.45916,41.4696133 1041.08439,38.3867403 1041.08439,38.3867403 C1041.08439,38.3867403 1038.70962,38.3867403 1037.91803,39.3812155 C1037.12644,40.3756906 1034.75167,41.4696133 1033.24046,41.4696133 C1027.69933,41.4696133 1025.32456,40.4751381 1023.02175,38.3867403 C1020.64698,36.2983425 1015.96941,34.2099448 1014.38623,32.121547 C1012.80305,30.0331492 1010.42828,30.0331492 1008.12547,27.9447514 C1005.75071,25.8563536 1003.4479,26.9502762 1001.86472,25.8563536 C1000.28154,24.8618785 998.698361,23.7679558 997.906771,23.7679558 C997.115181,23.7679558 996.323592,25.8563536 995.532002,25.8563536 C994.740412,25.8563536 993.157233,26.8508287 992.365643,26.8508287 C991.574053,26.8508287 989.990874,28.9392265 989.199284,27.8453039 C988.407695,26.8508287 987.616105,23.6685083 986.824515,24.7624309 C986.032925,25.8563536 984.449746,28.9392265 982.866567,29.9337017 C981.283387,30.9281768 976.605812,34.1104972 975.022632,35.1049724 C973.439453,36.0994475 970.345057,35.1049724 969.553467,36.0994475 C968.761877,37.0939227 966.387108,36.0994475 964.875891,37.0939227 C963.364675,38.0883978 960.198316,40.1767956 960.198316,40.1767956 C960.198316,40.1767956 956.240367,42.2651934 955.52074,43.2596685 C954.729151,44.2541436 952.354382,45.3480663 950.843165,44.2541436 C949.331948,43.160221 946.885216,43.2596685 945.374,42.1657459 C943.79082,41.1712707 941.416051,42.1657459 939.904834,41.1712707 C938.321655,40.1767956 935.227259,36 933.644079,36 C932.0609,36 929.686131,35.0055249 928.966504,32.9171271 C928.246877,30.8287293 925.800145,30.8287293 925.008555,29.8342541 C924.216966,28.839779 922.633786,27.7458564 921.050607,27.7458564 C919.467427,27.7458564 918.675838,28.7403315 917.092658,29.8342541 C915.509479,30.8287293 914.717889,30.8287293 912.415083,30.8287293 C910.040313,30.8287293 907.737507,30.8287293 906.154328,32.9171271 C904.571148,35.0055249 895.935624,38.0883978 895.144034,40.1767956 C894.352445,42.2651934 891.186086,44.3535912 889.674869,44.3535912 C888.163652,44.3535912 884.205704,44.3535912 883.414114,44.3535912 C882.622525,44.3535912 878.736539,46.441989 877.153359,47.4364641 C875.57018,48.4309392 872.475784,49.5248619 870.892604,48.4309392 C869.309425,47.4364641 866.215029,48.4309392 864.631849,47.4364641 C863.04867,46.441989 861.46549,44.3535912 859.954274,44.3535912 C854.413146,43.359116 852.038377,44.3535912 849.73557,43.359116 C847.360801,42.3646409 845.057995,43.359116 844.266405,43.359116 C843.474815,43.359116 842.683226,44.3535912 841.891636,44.3535912 C841.100046,44.3535912 838.725277,43.359116 837.933687,42.2651934 C837.142098,41.2707182 833.975739,39.1823204 833.256112,39.1823204 C832.536485,39.1823204 829.298163,37.0939227 829.298163,36.0994475 C825.340215,37.0939227 826.131804,36.0994475 824.548625,37.0939227 C822.965446,38.0883978 822.173856,35.0055249 821.382266,36.0994475 C820.590676,37.0939227 819.799087,37.0939227 819.007497,38.1878453 C815.841138,38.1878453 814.257959,39.1823204 813.466369,39.1823204 C812.674779,39.1823204 810.30001,40.1767956 809.508421,40.1767956 C808.716831,40.1767956 806.342062,41.1712707 806.342062,41.1712707 C806.342062,41.1712707 806.342062,42.1657459 804.758882,42.1657459 C803.175703,42.1657459 801.592523,41.1712707 799.289717,41.1712707 C796.914948,41.1712707 792.237372,41.1712707 790.654193,41.1712707 C789.071014,41.1712707 785.976617,42.1657459 782.810259,42.1657459 C779.6439,42.1657459 776.549504,42.1657459 774.174735,43.160221 C771.799965,44.1546961 769.497159,43.160221 767.91398,43.160221 C766.3308,43.160221 763.956031,44.1546961 762.444814,44.1546961 C760.933598,44.1546961 756.975649,44.1546961 754.60088,44.1546961 C752.226111,44.1546961 749.131715,45.1491713 747.548535,45.1491713 C745.965356,45.1491713 741.28778,46.1436464 740.496191,46.1436464 C739.704601,46.1436464 736.538242,44.0552486 735.027025,43.0607735 C728.694308,44.0552486 724.808322,45.1491713 724.016732,46.1436464 C723.225142,47.1381215 720.058784,49.2265193 718.547567,49.2265193 C717.03635,49.2265193 716.172798,48.2320442 712.286812,48.2320442 C708.400826,48.2320442 706.817647,46.1436464 705.234467,47.2375691 C703.651288,48.2320442 701.276519,49.3259669 698.973712,49.3259669 C696.670906,49.3259669 694.296137,49.3259669 692.712957,49.3259669 C691.129778,49.3259669 688.035382,49.3259669 685.660613,49.3259669 C683.285843,49.3259669 677.816678,49.3259669 674.650319,49.3259669 C671.483961,49.3259669 669.972744,49.3259669 668.389564,49.3259669 C666.806385,49.3259669 665.223206,53.5027624 664.431616,52.4088398 C663.640026,51.4143646 662.056847,49.3259669 660.473667,49.3259669 C658.890488,49.3259669 658.098898,48.3314917 656.515719,48.3314917 C654.932539,48.3314917 652.55777,50.4198895 651.046554,50.4198895 C649.463374,50.4198895 644.785799,53.5027624 642.411029,53.5027624 C640.03626,53.5027624 633.775505,53.5027624 631.400736,53.5027624 C629.025967,53.5027624 624.348392,54.4972376 622.765212,54.4972376 C621.182033,54.4972376 612.546509,55.4917127 610.963329,55.4917127 C609.38015,55.4917127 603.910985,55.4917127 600.744626,55.4917127 C597.578267,55.4917127 592.900691,56.4861878 590.525922,56.4861878 C588.151153,56.4861878 585.056757,58.5745856 584.265167,57.480663 C583.473578,56.4861878 581.098808,55.3922652 581.098808,55.3922652 C581.098808,55.3922652 577.14086,57.480663 576.421233,57.480663 C575.629643,57.480663 571.743657,56.4861878 570.952068,56.4861878 C570.160478,56.4861878 567.785709,58.5745856 565.482902,58.5745856 C563.108133,58.5745856 561.524954,59.5690608 559.222147,59.5690608 C556.919341,59.5690608 552.961392,59.5690608 552.961392,59.5690608 C552.961392,59.5690608 552.169803,56.4861878 551.378213,57.480663 C550.586623,58.4751381 548.211854,60.5635359 546.700637,60.5635359 C545.189421,60.5635359 540.439883,60.5635359 539.648293,60.5635359 C538.856703,60.5635359 537.273524,59.5690608 534.970717,60.5635359 C532.595948,61.558011 527.126783,61.558011 524.752014,61.558011 C522.377245,61.558011 520.794065,61.558011 518.491259,61.558011 C516.188452,61.558011 510.647324,61.558011 508.272555,61.558011 C505.897786,61.558011 496.470672,61.558011 494.887493,61.558011 C493.304314,61.558011 490.929544,62.5524862 489.418328,61.558011 C487.907111,60.5635359 485.460379,61.558011 483.949162,61.558011 C482.365983,61.558011 476.896818,61.558011 475.313638,61.558011 C473.730459,61.558011 467.469704,61.558011 464.303345,61.558011 C461.136986,61.558011 447.823887,61.558011 446.240707,61.558011 C444.657528,61.558011 436.022004,61.558011 432.855645,61.558011 C429.689286,61.558011 425.011711,61.558011 417.959366,60.5635359 C410.907021,59.5690608 408.532252,59.5690608 404.574304,59.5690608 C400.616355,59.5690608 391.980831,59.5690608 388.886435,59.5690608 C385.720076,59.5690608 383.41727,58.5745856 381.83409,58.5745856 C380.250911,58.5745856 377.156515,59.5690608 376.364925,59.5690608 C375.573335,59.5690608 373.198566,59.5690608 370.89576,59.5690608 C368.592953,59.5690608 366.218184,60.5635359 363.051825,59.5690608 C359.885466,58.5745856 358.37425,59.5690608 355.999481,59.5690608 C353.624711,59.5690608 350.530315,59.5690608 348.155546,59.5690608 C345.780777,59.5690608 341.103201,57.480663 338.728432,56.4861878 C336.353663,55.4917127 334.770484,55.4917127 331.676088,55.4917127 C328.509729,55.4917127 323.832153,54.4972376 321.457384,55.4917127 C319.082615,56.4861878 315.196629,59.6685083 312.82186,59.6685083 C310.447091,59.6685083 306.561105,58.6740331 304.977926,58.6740331 C303.394746,58.6740331 291.592863,59.6685083 287.706878,59.6685083 C283.748929,59.6685083 278.279764,60.6629834 275.113405,59.6685083 C271.947046,58.6740331 264.103112,60.6629834 261.728343,60.6629834 C259.353573,60.6629834 255.467588,60.6629834 253.884408,59.6685083 C252.301229,58.6740331 249.206833,58.6740331 246.832064,57.5801105 C244.457294,56.5856354 242.154488,55.4917127 239.779719,55.4917127 C237.40495,55.4917127 233.518964,54.4972376 231.935784,54.4972376 C230.352605,54.4972376 221.717081,54.4972376 219.342312,54.4972376 C216.967543,54.4972376 207.540429,53.5027624 205.95725,53.5027624 C204.37407,53.5027624 198.113315,52.5082873 196.530136,53.5027624 C194.946956,54.4972376 187.894612,53.5027624 186.311432,53.5027624 C184.728253,53.5027624 181.633857,54.4972376 177.675908,54.4972376 C173.71796,54.4972376 165.874025,53.5027624 162.779629,53.5027624 C159.685233,53.5027624 158.102054,54.4972376 155.727284,54.4972376 C153.352515,54.4972376 152.560926,53.5027624 151.049709,53.5027624 C149.466529,53.5027624 145.580544,54.4972376 143.205774,54.4972376 C140.831005,54.4972376 136.945019,54.4972376 134.57025,54.4972376 C132.195481,54.4972376 130.612302,58.6740331 128.309495,58.6740331 C126.006689,58.6740331 122.84033,57.679558 118.090792,57.679558 C113.413216,57.679558 101.611333,57.679558 99.2365643,57.679558 C96.8617952,57.679558 87.4346814,56.6850829 82.7571058,56.6850829 C78.0795303,56.6850829 76.4963509,56.6850829 72.5384023,56.6850829 C68.5804538,56.6850829 64.694468,54.5966851 61.5281091,54.5966851 C58.3617503,54.5966851 52.892585,54.5966851 50.5178159,53.6022099 C48.1430468,52.6077348 43.4654712,52.6077348 41.8822918,52.6077348 C40.2991124,52.6077348 37.2047163,51.6132597 34.8299472,51.6132597 C32.455178,51.6132597 26.9860128,51.6132597 24.6112437,50.6187845 C22.2364745,49.6243094 16.7673093,49.6243094 14.3925401,48.5303867 C12.017771,47.5359116 7.34019547,46.441989 5.75701606,46.441989 C4.17383664,46.441989 0,44.7513812 0,44.7513812 L0,0 L1439.97364,0 L1439.97364,26.1681626 Z" id="Shape" transform="translate(720.000000, 31.000000) scale(1, -1) translate(-720.000000, -31.000000) "></path>
                        </g>
                    </g>
                </g>
            </g>
        </g>
    </g>
</svg>