<?xml version="1.0" encoding="UTF-8"?>
<svg width="1440px" height="109px" viewBox="0 0 1440 109" version="1.1" xmlns="http://www.w3.org/2000/svg" xmlns:xlink="http://www.w3.org/1999/xlink">
    <!-- Generator: Sketch 47.1 (45422) - http://www.bohemiancoding.com/sketch -->
    <title>Shape</title>
    <desc>Created with Sketch.</desc>
    <defs>
        <rect id="path-1" x="0" y="0" width="1440" height="700"></rect>
        <radialGradient cx="18.5171279%" cy="46.2856255%" fx="18.5171279%" fy="46.2856255%" r="94.0017587%" gradientTransform="translate(0.185171,0.462856),scale(0.486111,1.000000),rotate(22.933721),translate(-0.185171,-0.462856)" id="radialGradient-3">
            <stop stop-color="#25283D" stop-opacity="0.619140625" offset="0%"></stop>
            <stop stop-color="#FFEDD2" stop-opacity="0.358299366" offset="100%"></stop>
        </radialGradient>
    </defs>
    <g id="Mockups-Max" stroke="none" stroke-width="1" fill="none" fill-rule="evenodd">
        <g id="Desktop---Version-2" transform="translate(0.000000, -591.000000)">
            <g id="Hero">
                <rect id="Rectangle-3" fill="url(#radialGradient-3)" opacity="0.705389493" mask="url(#mask-2)" x="0" y="0" width="1440" height="700"></rect>
                <path d="M0,700 L0,677.618365 C0,677.618365 2.51509556,675.835757 3.73671341,675.835757 C4.95833125,675.835757 5.03019113,680.985514 6.25180897,680.985514 C7.47342682,680.985514 13.7970957,680.985514 16.3121912,679.202906 C18.8272868,677.420298 28.887669,675.736724 32.6243825,674.053149 C36.3610959,672.369575 43.9063826,674.053149 46.4214781,674.053149 C48.9365737,674.053149 60.2185738,675.835757 63.9552872,677.519332 C67.6920006,679.202906 74.0156694,677.519332 76.530765,677.519332 C79.0458606,677.519332 80.2674784,679.30194 82.782574,679.30194 C85.2976695,679.30194 85.2976695,677.519332 87.8127651,677.519332 C90.3278607,677.519332 90.3278607,679.30194 92.8429562,679.30194 C95.3580518,679.30194 99.0947652,681.084548 102.903338,679.30194 C106.711912,677.519332 112.963721,679.30194 116.700434,677.519332 C120.437148,675.736724 125.467339,675.736724 127.982434,675.736724 C130.49753,675.736724 149.324817,677.519332 154.355008,677.519332 C159.385199,677.519332 160.606817,680.985514 164.41539,679.30194 C168.223963,677.618365 173.182295,675.835757 174.475772,675.835757 C175.76925,675.835757 180.727581,675.835757 182.021059,674.053149 C183.314537,672.270541 182.021059,672.270541 183.314537,672.270541 C188.344728,672.270541 189.566346,672.270541 190.787963,670.487933 C192.009581,668.705325 194.524677,668.705325 194.524677,668.705325 C194.524677,668.705325 194.524677,665.239143 195.818155,665.239143 L202.069964,665.239143 C203.363441,665.239143 207.100155,665.239143 209.61525,663.456535 C212.130346,661.673927 212.130346,661.673927 214.645441,661.673927 C217.160537,661.673927 218.382155,661.673927 219.675633,663.456535 C220.96911,665.239143 222.190728,666.922717 223.412346,666.922717 C227.077199,666.922717 229.520435,668.705325 230.813913,668.705325 C232.107391,668.705325 235.844104,666.922717 237.065722,666.922717 C238.28734,666.922717 240.802435,668.705325 243.317531,668.705325 L252.084435,668.705325 C253.377913,668.705325 253.377913,672.171507 255.821149,670.487933 C258.336244,668.804359 260.85134,665.338176 263.366435,663.555568 C265.881531,661.77296 268.396627,660.089386 269.618244,661.77296 C270.839862,663.456535 275.870053,659.990352 277.163531,659.990352 C278.457009,659.990352 278.457009,663.456535 279.678627,663.456535 L287.295773,663.456535 C289.810869,663.456535 289.810869,661.673927 291.032487,661.673927 L296.062678,661.673927 C298.577773,661.673927 299.799391,659.891318 302.314487,661.673927 C304.829582,663.456535 308.566296,661.673927 309.859773,661.673927 C311.153251,661.673927 312.374869,665.140109 313.596487,665.140109 C317.40506,665.140109 318.626678,663.357501 321.141774,663.357501 C323.656869,663.357501 331.202156,665.140109 334.938869,666.823683 C338.675583,668.507257 339.96906,668.606291 341.190678,666.823683 C342.412296,665.041075 344.927392,665.041075 346.220869,665.041075 C347.514347,665.041075 348.735965,666.823683 349.957583,666.823683 C357.43101,666.823683 359.946105,668.606291 362.461201,666.823683 C363.970258,665.635278 365.694895,665.041075 367.491392,665.041075 C368.78487,665.041075 372.521583,666.823683 373.743201,666.823683 C374.964819,666.823683 378.773392,666.823683 379.99501,665.041075 C381.216628,663.258467 387.540296,665.041075 388.761914,665.041075 C393.792105,665.041075 396.235341,665.041075 397.528819,663.258467 C398.822297,661.475859 398.822297,663.258467 401.265532,661.475859 C403.708768,659.693251 405.002246,656.326102 406.295723,656.326102 C412.547532,656.326102 415.062628,658.10871 417.577723,658.10871 C420.092819,658.10871 423.829532,661.574893 425.12301,663.258467 C426.416488,664.942041 427.638106,663.258467 430.153201,663.258467 C432.668297,663.258467 434.177354,662.961366 436.69245,662.961366 C439.207545,662.961366 440.141724,663.258467 441.435201,661.475859 C442.728679,659.693251 443.950297,661.475859 446.465392,661.475859 L459.04087,661.475859 C461.555966,661.475859 467.807775,670.091798 470.32287,668.408224 C472.837966,666.724649 475.353062,668.408224 476.574679,666.625616 C477.796297,664.843008 481.604871,668.408224 484.119966,666.625616 C487.856679,666.625616 489.150157,664.843008 490.371775,664.843008 C491.593393,664.843008 492.886871,668.30919 494.108488,666.625616 C495.330106,664.942041 496.623584,664.843008 497.845202,664.843008 C499.06682,664.843008 502.286925,661.77296 503.580403,661.77296 C504.873881,661.77296 508.036146,650.879244 511.2211,653.808786 C514.406055,656.738328 515.253029,653.751224 517.794933,650.879244 C520.034117,647.343879 521.84809,644.61889 523.236853,642.704275 C525.319996,639.832353 527.816148,656.821271 530.331244,655.038663 C532.84634,653.256055 532.564467,651.770548 535.079563,651.770548 C537.594659,651.770548 545.488298,656.029001 546.781776,656.029001 C553.033585,656.029001 557.345294,647.397081 559.86039,645.713506 C562.375485,644.029932 566.423645,634.861685 568.938741,634.861685 C571.453836,634.861685 573.842221,641.965381 576.844699,644.163378 C579.847178,646.361374 579.619046,633.596872 582.810424,638.044491 C586.001801,642.492111 589.914442,631.462836 590.86334,629.818342 C591.812238,628.173848 596.321787,638.758485 601.359491,638.044491 C606.397195,637.330498 606.223722,621.855764 610.131855,623.768001 C612.264051,624.811277 612.866084,633.692368 614.896389,638.044491 C616.237317,640.918882 619.049735,636.886701 619.202314,637.330498 C621.111462,642.883495 620.17295,650.420904 622.849787,648.4034 C625.740557,646.224657 626.076787,638.044491 628.520023,638.044491 C630.963258,638.044491 634.109213,651.770548 635.402691,651.770548 C636.025477,651.902593 637.885519,653.421111 640.982819,656.326102 C641.773278,657.415474 644.428495,658.10871 646.009412,658.10871 C647.590329,658.10871 651.556897,660.386487 653.137814,659.297116 C654.718731,658.207744 660.922504,655.038663 663.29388,655.038663 C664.367162,655.038663 667.85114,649.261772 672.231143,647.591667 C677.52859,645.571739 683.823599,647.591667 684.688995,647.591667 C686.269912,647.591667 700.925819,655.038663 702.506736,655.038663 C704.087654,655.038663 712.128539,657.217406 714.499914,657.217406 C716.87129,657.217406 721.807514,656.227069 723.81959,655.038663 C725.400507,653.949292 738.802599,657.415474 741.173975,656.326102 C743.545351,655.236731 754.073166,653.808786 756.516402,653.808786 C758.887777,653.808786 763.296291,648.4034 764.949068,648.4034 C766.601846,648.4034 776.230351,644.163378 777.020809,644.163378 L785.859574,644.163378 C787.440491,644.163378 792.194394,641.340737 793.847165,639.832353 C795.17344,638.621943 796.486386,647.919304 797.199596,647.591667 C797.412942,647.49366 797.520069,639.908719 798.646095,637.330498 C799.666119,634.994986 801.608439,637.80692 803.634163,634.861685 C806.162348,631.185913 807.282341,634.61417 809.522729,638.044491 C810.951642,640.232341 812.51067,645.117514 813.925147,644.163378 C816.203229,642.626697 819.295398,632.809435 820.338388,631.185913 C821.737398,629.008205 823.226587,639.173764 825.665765,639.832353 C827.050205,640.206159 830.173727,635.521632 831.456097,636.1605 C832.415679,636.638558 838.144896,651.126085 841.993528,648.4034 C845.84216,645.680715 850.76925,633.49481 852.33483,631.185913 C853.90041,628.877016 855.013721,634.548362 855.085464,634.861685 C856.167874,639.588915 856.767348,642.252438 857.91288,645.680715 C858.409689,647.167532 862.745555,636.081408 863.899122,637.330498 C865.410134,638.966631 867.782207,647.25753 868.592476,650.582143 C869.841358,655.706432 870.381377,655.999641 870.726084,656.128035 C873.09746,657.217406 876.331154,658.306778 877.912071,658.306778 C879.492989,658.306778 881.145766,657.217406 883.517142,657.217406 C885.888517,657.217406 889.91267,655.038663 891.565447,655.038663 C893.218224,655.038663 894.799142,656.128035 896.380059,656.128035 L909.171116,656.128035 C909.961575,656.128035 910.752034,655.038663 911.542492,655.038663 C912.117371,655.137697 912.69225,655.533832 913.123409,656.128035 C917.938021,655.038663 918.728479,657.217406 919.590798,657.217406 L926.776785,657.217406 C929.148161,657.217406 930.800938,656.128035 932.381855,658.306778 C933.4358,659.759273 937.986925,659.759273 946.035231,658.306778 C947.616149,658.306778 952.43076,659.39615 954.083537,660.485521 C955.736314,661.574893 955.664454,661.574893 957.317231,661.574893 C958.970008,661.574893 960.550926,660.485521 962.131843,659.39615 C963.71276,658.306778 963.71276,657.217406 964.503219,658.306778 C965.293677,659.39615 967.736913,657.217406 969.31783,657.217406 C970.898747,657.217406 974.9229,655.038663 975.713359,655.038663 C976.503818,655.038663 982.108888,653.949292 982.899346,655.038663 C983.689805,656.128035 984.480263,657.217406 986.133041,657.217406 L995.762264,657.217406 C996.552722,657.217406 998.995958,658.306778 1000.57688,658.306778 C1006.9724,658.306778 1006.9724,658.306778 1010.2061,659.39615 C1013.43979,660.485521 1017.39209,659.39615 1019.04486,660.485521 C1021.05694,661.871994 1023.21274,662.664264 1025.44039,662.664264 C1027.81177,662.664264 1037.44099,659.39615 1039.88423,659.39615 C1042.32746,659.39615 1046.27975,657.217406 1047.93253,656.128035 C1049.72903,655.038663 1051.7411,655.038663 1053.5376,656.128035 C1057.41803,658.504846 1061.44219,660.287454 1065.5382,661.673927 C1069.56235,662.763298 1080.77249,661.673927 1082.35341,661.673927 C1083.93433,661.673927 1086.37756,662.763298 1089.5394,662.763298 L1094.35401,662.763298 C1095.93493,662.763298 1099.95908,660.584555 1101.54,660.584555 C1103.12091,660.584555 1103.91137,662.763298 1105.56415,662.763298 C1107.21693,662.763298 1107.93553,660.584555 1108.79784,659.495183 C1112.822,660.584555 1116.05569,661.673927 1118.42707,662.763298 C1120.79844,663.85267 1120.00798,662.763298 1122.45122,663.85267 C1124.89446,664.942041 1124.8226,662.763298 1127.26583,662.763298 C1129.70907,662.763298 1132.08044,660.584555 1134.45182,660.584555 C1136.82319,660.584555 1137.68551,662.763298 1139.26643,662.763298 C1140.84735,662.763298 1144.8715,660.584555 1146.45242,659.495183 C1148.03333,658.405812 1150.47657,660.584555 1152.05749,661.673927 C1153.63841,662.763298 1155.29118,660.584555 1156.8721,660.584555 L1162.47717,660.584555 C1164.70483,660.782623 1166.86062,661.574893 1168.8727,662.763298 C1170.45362,663.85267 1173.68731,663.85267 1175.26823,663.85267 C1176.99286,664.050737 1178.7175,663.654602 1180.22656,662.763298 C1181.73562,661.673927 1183.53211,661.673927 1185.04117,662.763298 C1186.26279,663.654602 1187.62813,664.050737 1189.06532,663.85267 C1190.64624,663.85267 1192.29902,666.031413 1193.87993,666.031413 L1200.27546,666.031413 C1201.85638,666.031413 1206.67099,663.85267 1208.32377,663.85267 C1209.83283,663.85267 1211.19816,664.64494 1212.34792,666.031413 C1213.13838,667.120785 1216.37207,668.210156 1217.95299,668.210156 C1220.39623,668.012089 1222.83946,667.219818 1225.13898,666.031413 C1226.7199,664.942041 1228.37267,666.031413 1229.95359,667.120785 C1231.53451,668.210156 1234.7682,668.210156 1236.34912,668.210156 C1238.79235,668.012089 1241.23559,667.219818 1243.53511,666.031413 C1245.11602,664.942041 1248.34972,663.85267 1249.93064,664.942041 C1251.51155,666.031413 1255.53571,666.031413 1257.11662,666.031413 C1258.69754,666.031413 1262.72169,663.85267 1265.16493,663.85267 L1271.56046,663.85267 C1273.14137,663.85267 1277.16553,660.584555 1278.74644,659.39615 C1280.32736,658.207744 1282.7706,658.306778 1283.56106,658.306778 C1284.35151,658.306778 1287.58521,661.574893 1288.37567,661.574893 C1289.16613,661.574893 1289.95658,660.485521 1290.74704,660.485521 C1291.5375,660.485521 1293.11842,661.574893 1294.7712,662.664264 C1296.42397,663.753636 1298.00489,664.843008 1298.79535,663.753636 C1299.58581,662.664264 1302.02904,663.753636 1302.8195,664.843008 C1303.60996,665.932379 1304.40042,665.932379 1306.0532,665.932379 C1310.86781,665.932379 1312.44872,664.843008 1314.1015,665.932379 C1315.75428,667.021751 1319.70657,665.932379 1321.28749,665.932379 C1322.86841,665.932379 1337.31224,658.207744 1338.89316,657.118373 C1341.48011,655.632866 1344.35451,655.632866 1346.94146,657.118373 C1348.52238,658.207744 1349.31284,659.297116 1350.96562,659.297116 C1352.61839,659.297116 1356.57069,653.751224 1358.1516,653.751224 C1359.66066,653.751224 1361.026,654.543494 1362.17576,655.929967 C1363.03808,657.118373 1364.18783,657.910643 1365.40945,658.10871 C1369.4336,658.10871 1378.27237,651.770548 1380.64374,651.770548 C1383.01512,651.770548 1390.63511,648.4034 1392.21603,648.4034 C1393.79694,648.4034 1398.78194,634.861685 1400.43472,629.818342 C1401.1657,627.587819 1403.90366,620.878579 1405.01901,619.502098 C1406.42554,617.766275 1406.23251,620.751891 1408.57605,623.768001 C1412.77798,629.17584 1411.79534,619.502098 1412.57737,619.502098 C1412.94543,619.502098 1413.74357,614.295927 1414.43795,615.303789 C1416.27098,619.6383 1416.69295,618.91461 1418.5999,616.256973 C1419.3351,615.232356 1420.74014,619.159525 1421.90125,617.880486 C1423.75181,615.841973 1424.55894,620.990247 1424.89144,620.761135 C1425.51895,620.328728 1425.6636,622.199819 1428.54909,616.256973 C1429.6938,613.899389 1431.69551,610.736233 1433.18843,608.459234 C1434.68135,606.182235 1437.03359,615.713775 1437.55676,612.604391 C1438.3208,608.063504 1439.71287,590.912329 1440,591.258574 C1440,587.563123 1440,623.810265 1440,700 L0,700 Z" id="Shape" fill="#FFFFFF" fill-rule="nonzero" mask="url(#mask-2)"></path>
            </g>
        </g>
    </g>
</svg>