<svg width="100%" height="109" xmlns="http://www.w3.org/2000/svg"><title>Shape</title><path d="M0 110.002V87.415s2.515-1.8 3.737-1.8c1.221 0 1.293 5.198 2.515 5.198 1.221 0 7.545 0 10.06-1.8 2.515-1.798 12.576-3.497 16.312-5.196 3.737-1.7 11.282 0 13.797 0 2.516 0 13.798 1.799 17.534 3.498 3.737 1.699 10.06 0 12.576 0 2.515 0 3.736 1.799 6.252 1.799 2.515 0 2.515-1.8 5.03-1.8s2.515 1.8 5.03 1.8 6.252 1.799 10.06 0c3.809-1.8 10.06 0 13.797-1.8 3.737-1.798 8.767-1.798 11.282-1.798 2.516 0 21.343 1.799 26.373 1.799 5.03 0 6.252 3.498 10.06 1.799 3.809-1.7 8.767-3.498 10.06-3.498 1.294 0 6.253 0 7.546-1.8 1.294-1.798 0-1.798 1.294-1.798 5.03 0 6.251 0 7.473-1.8 1.222-1.798 3.737-1.798 3.737-1.798s0-3.498 1.293-3.498h6.252c1.293 0 5.03 0 7.545-1.8 2.515-1.798 2.515-1.798 5.03-1.798 2.516 0 3.737 0 5.03 1.799 1.294 1.799 2.516 3.498 3.737 3.498 3.665 0 6.108 1.799 7.402 1.799 1.293 0 5.03-1.8 6.252-1.8 1.221 0 3.736 1.8 6.252 1.8h8.766c1.294 0 1.294 3.498 3.737 1.799 2.515-1.7 5.03-5.197 7.545-6.996 2.516-1.8 5.03-3.498 6.252-1.8 1.222 1.7 6.252-1.798 7.546-1.798 1.293 0 1.293 3.498 2.515 3.498h7.617c2.515 0 2.515-1.8 3.736-1.8h5.03c2.516 0 3.737-1.798 6.252 0 2.516 1.8 6.252 0 7.546 0 1.293 0 2.515 3.499 3.736 3.499 3.81 0 5.03-1.8 7.546-1.8 2.515 0 10.06 1.8 13.797 3.499s5.03 1.799 6.252 0c1.221-1.8 3.736-1.8 5.03-1.8 1.293 0 2.515 1.8 3.737 1.8 7.473 0 9.988 1.799 12.503 0 1.51-1.2 3.234-1.8 5.03-1.8 1.294 0 5.03 1.8 6.252 1.8 1.222 0 5.03 0 6.252-1.8 1.222-1.798 7.545 0 8.767 0 5.03 0 7.473 0 8.767-1.798 1.293-1.8 1.293 0 3.737-1.8 2.443-1.798 3.736-5.196 5.03-5.196 6.252 0 8.767 1.799 11.282 1.799 2.515 0 6.252 3.498 7.545 5.197 1.293 1.699 2.515 0 5.03 0s4.024-.3 6.54-.3c2.515 0 3.449.3 4.742-1.5 1.294-1.798 2.515 0 5.03 0h12.576c2.515 0 8.767 8.696 11.282 6.997 2.515-1.7 5.03 0 6.252-1.8 1.221-1.798 5.03 1.8 7.545 0 3.737 0 5.03-1.798 6.252-1.798 1.221 0 2.515 3.498 3.736 1.799 1.222-1.7 2.516-1.8 3.737-1.8 1.222 0 4.442-3.097 5.735-3.097 1.294 0 4.456-10.994 7.641-8.038 3.185 2.957 4.032-.058 6.574-2.956 2.24-3.568 4.053-6.318 5.442-8.25 2.083-2.899 4.58 14.246 7.094 12.447 2.515-1.799 2.233-3.298 4.749-3.298 2.515 0 10.408 4.298 11.702 4.298 6.252 0 10.563-8.711 13.078-10.41 2.515-1.7 6.564-10.952 9.079-10.952 2.515 0 4.903 7.169 7.906 9.387 3.002 2.218 2.774-10.664 5.965-6.175 3.192 4.489 7.104-6.642 8.053-8.302.95-1.66 5.459 9.023 10.496 8.302 5.038-.72 4.865-16.338 8.773-14.408 2.132 1.053 2.734 10.016 4.764 14.408 1.341 2.9 4.154-1.168 4.306-.72 1.91 5.604.971 13.21 3.648 11.174 2.89-2.199 3.227-10.454 5.67-10.454s5.59 13.852 6.883 13.852c.622.134 2.483 1.666 5.58 4.598.79 1.1 3.445 1.799 5.026 1.799s5.548 2.298 7.129 1.199c1.58-1.1 7.785-4.298 10.156-4.298 1.073 0 4.557-5.83 8.937-7.515 5.298-2.039 11.593 0 12.458 0 1.58 0 16.237 7.515 17.818 7.515 1.58 0 9.622 2.2 11.993 2.2 2.371 0 7.308-1 9.32-2.2 1.58-1.099 14.983 2.4 17.354 1.3 2.371-1.1 12.9-2.54 15.342-2.54 2.372 0 6.78-5.456 8.433-5.456 1.653 0 11.281-4.279 12.072-4.279h8.839c1.58 0 6.334-2.848 7.987-4.37 1.326-1.222 2.64 8.16 3.353 7.83.213-.099.32-7.754 1.446-10.356 1.02-2.357 2.962.481 4.988-2.491 2.528-3.71 3.648-.25 5.889 3.212 1.429 2.208 2.988 7.138 4.402 6.175 2.278-1.55 5.37-11.458 6.413-13.097 1.4-2.197 2.889 8.062 5.328 8.726 1.384.378 4.508-4.35 5.79-3.705.96.482 6.689 15.103 10.538 12.355 3.848-2.748 8.775-15.046 10.34-17.376 1.566-2.33 2.68 3.394 2.751 3.71 1.083 4.77 1.682 7.459 2.828 10.918.497 1.5 4.833-9.687 5.986-8.427 1.511 1.652 3.883 10.019 4.693 13.374 1.25 5.171 1.79 5.467 2.134 5.597 2.371 1.1 5.605 2.199 7.186 2.199 1.581 0 3.234-1.1 5.605-1.1 2.372 0 6.396-2.199 8.048-2.199 1.653 0 3.234 1.1 4.815 1.1h12.791c.79 0 1.581-1.1 2.371-1.1.575.1 1.15.5 1.581 1.1 4.815-1.1 5.605 1.1 6.468 1.1h7.186c2.371 0 4.024-1.1 5.605 1.099 1.054 1.465 5.605 1.465 13.653 0 1.581 0 6.396 1.099 8.049 2.198 1.652 1.1 1.58 1.1 3.233 1.1s3.234-1.1 4.815-2.199c1.58-1.1 1.58-2.199 2.371-1.1.79 1.1 3.234-1.099 4.815-1.099 1.58 0 5.605-2.199 6.395-2.199.79 0 6.396-1.099 7.186 0 .79 1.1 1.581 2.2 3.234 2.2h9.63c.79 0 3.233 1.099 4.814 1.099 6.395 0 6.395 0 9.63 1.099 3.233 1.1 7.185 0 8.838 1.1 2.012 1.399 4.168 2.198 6.395 2.198 2.372 0 12.001-3.298 14.444-3.298 2.443 0 6.396-2.199 8.049-3.298 1.796-1.1 3.808-1.1 5.605 0 3.88 2.398 7.904 4.197 12 5.597 4.024 1.1 15.234 0 16.815 0 1.581 0 4.025 1.1 7.186 1.1h4.815c1.58 0 5.605-2.2 7.186-2.2 1.58 0 2.371 2.2 4.024 2.2s2.372-2.2 3.234-3.3c4.024 1.1 7.258 2.2 9.63 3.3 2.37 1.098 1.58 0 4.023 1.098 2.443 1.1 2.372-1.099 4.815-1.099 2.443 0 4.814-2.199 7.186-2.199 2.371 0 3.234 2.2 4.814 2.2 1.581 0 5.605-2.2 7.186-3.3 1.581-1.098 4.025 1.1 5.605 2.2 1.581 1.1 3.234-1.1 4.815-1.1h5.605c2.228.2 4.384 1 6.396 2.2 1.58 1.098 4.814 1.098 6.395 1.098 1.725.2 3.45-.2 4.959-1.099 1.509-1.1 3.305-1.1 4.814 0 1.222.9 2.587 1.3 4.024 1.1 1.581 0 3.234 2.198 4.815 2.198h6.395c1.581 0 6.396-2.199 8.049-2.199 1.509 0 2.874.8 4.024 2.2.79 1.099 4.024 2.198 5.605 2.198 2.443-.2 4.886-1 7.186-2.199 1.58-1.1 3.234 0 4.815 1.1 1.58 1.099 4.814 1.099 6.395 1.099 2.443-.2 4.887-1 7.186-2.199 1.581-1.1 4.815-2.199 6.396-1.1 1.58 1.1 5.605 1.1 7.186 1.1 1.58 0 5.605-2.199 8.048-2.199h6.395c1.581 0 5.606-3.298 7.186-4.497 1.581-1.2 4.025-1.1 4.815-1.1s4.024 3.299 4.815 3.299c.79 0 1.58-1.1 2.371-1.1.79 0 2.371 1.1 4.024 2.2 1.653 1.099 3.234 2.198 4.024 1.099.79-1.1 3.234 0 4.024 1.099.791 1.1 1.581 1.1 3.234 1.1 4.815 0 6.396-1.1 8.048 0 1.653 1.099 5.606 0 7.186 0 1.581 0 16.025-7.796 17.606-8.896 2.587-1.499 5.462-1.499 8.048 0 1.581 1.1 2.372 2.199 4.025 2.199 1.652 0 5.605-5.597 7.186-5.597 1.509 0 2.874.8 4.024 2.199.862 1.2 2.012 1.999 3.233 2.199 4.025 0 12.863-6.397 15.235-6.397 2.371 0 9.991-3.398 11.572-3.398 1.58 0 6.566-13.666 8.219-18.756.73-2.25 3.469-9.022 4.584-10.41 1.407-1.753 1.214 1.26 3.557 4.304 4.202 5.458 3.22-4.305 4.001-4.305.368 0 1.167-5.254 1.861-4.237 1.833 4.375 2.255 3.644 4.162.962.735-1.034 2.14 2.93 3.301 1.639 1.85-2.058 2.658 3.138 2.99 2.907.628-.437.773 1.452 3.658-4.546 1.145-2.38 3.147-5.571 4.64-7.87 1.492-2.297 3.845 7.322 4.368 4.184.764-4.583 2.156-21.891 2.443-21.542v109.741H0z" fill="#FFF" fill-rule="evenodd"/></svg>