<svg xmlns="http://www.w3.org/2000/svg" width="1440" height="61" viewBox="0 0 1440 61">
  <path d="M1440,35.83c.8-.26-16.48,4.29-20.43,5.29s-18.07,2.08-21.23,2.08h-44c-1.58,0-4-2.08-5.47-2.08s-19.65,0-22.81-1-9.43-2.09-11.8-1a33.86,33.86,0,0,1-8.64,2.08h-7c-1.59,0-4,0-5.47-1s-6.26-2.09-7-3.08-8.64-2.09-11.81-2.09S1257.76,32,1253,30.87s-11-2.09-13.38-2.09a17.66,17.66,0,0,1-7.84-2.08,19.63,19.63,0,0,0-8.64-2.09,56.88,56.88,0,0,1-13.38-2.09,27.94,27.94,0,0,0-8.64-1c-2.37,0-8.64-1-11-1s-7-3.08-9.43-3.08-4.68,1-7,0-7.05-3.09-7.84-3.09-2.38,1-4.68,1-7,0-10.22,2.09-6.26,3.08-7.84,3.08-5.47,2.09-7.85,2.09-5.47,0-6.26,1-2.37,5.17-4,4.18-3.16-2.09-4.67-2.09-4-2.09-5.47-2.09-7.85-2.09-8.64-3.08-3.17-1-4.68-1-4.67-2.09-6.26-2.09-4-2.09-4.67-1-2.38,1-3.17,1-2.38-3.09-3.17-2.09-2.37,1-4,1-3.16,2.09-6.26,2.09h-15.68c-2.38,0-7.06-1-8.64,0s-3.17,2.09-4.68,2.09-4,3.08-4,3.08-2.37,0-3.16-1a7.47,7.47,0,0,0-4.68-2.09c-5.54,0-7.91,1-10.22,3.08s-7,4.18-8.63,6.27-4,2.09-6.26,4.17-4.68,1-6.26,2.09-3.17,2.09-4,2.09-1.59-2.09-2.38-2.09-2.37-1-3.16-1-2.38-2.09-3.17-1-1.58,4.18-2.37,3.09-2.38-4.18-4-5.17-6.26-4.18-7.85-5.18-4.67,0-5.47-1-3.16,0-4.67-1l-4.68-3.09s-4-2.09-4.68-3.08-3.17-2.09-4.68-1-4,1-5.47,2.08-4,0-5.47,1S935.23,26,933.64,26A5.11,5.11,0,0,0,929,29.08c-.72,2.09-3.17,2.09-4,3.09a5.59,5.59,0,0,1-4,2.08c-1.58,0-2.37-1-4-2.08s-2.37-1-4.67-1-4.68,0-6.26-2.09-10.22-5.17-11-7.26-3.95-4.17-5.47-4.17h-6.26c-.79,0-4.67-2.09-6.26-3.09s-4.67-2.09-6.26-1-4.67,0-6.26,1-3.16,3.09-4.68,3.09c-5.54,1-7.91,0-10.21,1s-4.68,0-5.47,0-1.59-1-2.38-1a7.08,7.08,0,0,0-4,2.08c-.79,1-3.95,3.09-4.67,3.09s-4,2.09-4,3.08c-4-1-3.17,0-4.75-1s-2.38,2.08-3.17,1-1.58-1-2.37-2.09c-3.17,0-4.75-1-5.54-1s-3.17-1-4-1a15.2,15.2,0,0,1-3.17-1s0-1-1.58-1-3.17,1-5.47,1h-8.64c-1.58,0-4.67-1-7.84-1s-6.26,0-8.63-1-4.68,0-6.27,0-3.95-1-5.47-1H754.6c-2.37,0-5.47-1-7.05-1s-6.26-1-7-1-4,2.08-5.47,3.08c-6.34-1-10.22-2.09-11-3.08s-4-3.09-5.47-3.09-2.38,1-6.26,1-5.47,2.09-7.06,1A12.6,12.6,0,0,0,699,12.67H668.39c-1.58,0-3.17-4.17-4-3.08s-2.37,3.08-4,3.08-2.37,1-4,1-4-2.09-5.47-2.09-6.26-3.08-8.64-3.08h-11c-2.37,0-7-1-8.63-1s-10.22-1-11.81-1H600.75c-3.17,0-7.85-1-10.22-1s-5.47-2.09-6.26-1a11.81,11.81,0,0,1-3.17,2.09s-4-2.09-4.68-2.09-4.68,1-5.47,1-3.16-2.09-5.47-2.09-4-1-6.26-1H553s-.79,3.08-1.58,2.09-3.17-3.08-4.68-3.08h-7.05c-.79,0-2.38,1-4.68,0s-7.84-1-10.22-1H494.89c-1.59,0-4-1-5.47,0s-4,0-5.47,0H432.86a96.94,96.94,0,0,0-14.9,1,76.82,76.82,0,0,1-13.39,1H388.89c-3.17,0-5.47,1-7.06,1s-4.67-1-5.47-1H370.9c-2.31,0-4.68-1-7.85,0s-4.68,0-7.05,0h-7.84c-2.38,0-7.06,2.09-9.43,3.08s-4,1-7.05,1-7.85,1-10.22,0-6.26-4.18-8.64-4.18-6.26,1-7.84,1-13.39-1-17.27-1-9.43-1-12.6,0-11-1-13.38-1-6.26,0-7.85,1-4.67,1-7,2.09-4.68,2.09-7.05,2.09-6.26,1-7.84,1h-12.6c-2.37,0-11.8,1-13.38,1s-7.85,1-9.43,0-8.63,0-10.22,0-4.68-1-8.63-1-11.81,1-14.9,1-4.68-1-7.05-1-3.17,1-4.68,1-5.47-1-7.84-1h-8.64c-2.37,0-4-4.17-6.26-4.17s-5.47,1-10.22,1H99.24c-2.38,0-11.8,1-16.48,1H72.54c-4,0-7.85,2.09-11,2.09s-8.64,0-11,1-7.05,1-8.64,1-4.68,1-7.05,1-7.84,0-10.22,1-7.84,1-10.22,2.09a33.76,33.76,0,0,1-8.63,2.09C4.17,15.56,0,17.25,0,17.25V62H1440Z" fill="#fff"/>
</svg>
