<svg width="64" height="64" viewBox="0 0 64 64" xmlns="http://www.w3.org/2000/svg" xmlns:xlink="http://www.w3.org/1999/xlink"><title>days</title><defs><rect id="a" width="64" height="64" rx="24"/><filter x="-20%" y="-20%" width="140%" height="140%" filterUnits="objectBoundingBox" id="b"><feOffset in="SourceAlpha" result="shadowOffsetOuter1"/><feGaussianBlur stdDeviation="2" in="shadowOffsetOuter1" result="shadowBlurOuter1"/><feColorMatrix values="0 0 0 0 0.2 0 0 0 0 0.2 0 0 0 0 0.2 0 0 0 0.3 0" in="shadowBlurOuter1" result="shadowMatrixOuter1"/><feMerge><feMergeNode in="shadowMatrixOuter1"/><feMergeNode in="SourceGraphic"/></feMerge></filter><circle id="d" cx="20" cy="20" r="20"/><circle id="f" cx="14" cy="4" r="4"/><path d="M39.488 20.947a1.553 1.553 0 0 1-1.075.467h-5.618l-.028-.001a1.306 1.306 0 0 1-1.24-1.306 1.311 1.311 0 0 1 1.65-1.266.492.492 0 0 0 .403-.065c.12-.077.2-.204.218-.345.057-.393.236-.75.522-1.033a1.8 1.8 0 0 1 1.273-.522c.755 0 1.438.473 1.699 1.18a.497.497 0 0 0 .616.301 1.564 1.564 0 0 1 1.58 2.59z" id="g"/><path d="M2.971 17.959c-.44-.024-.85-.211-1.155-.527a1.738 1.738 0 0 1 1.7-2.883.497.497 0 0 0 .62-.41c.072-.513.309-.976.68-1.343a2.344 2.344 0 0 1 1.654-.678c.981 0 1.87.616 2.21 1.535a.496.496 0 0 0 .614.301 2.051 2.051 0 0 1 2.073 3.393 2.045 2.045 0 0 1-1.408.614l-.017.001H3.005c-.012-.003-.022-.003-.034-.003z" id="h"/></defs><g fill="none" fill-rule="evenodd"><mask id="c" fill="#fff"><use xlink:href="#a"/></mask><use fill="#898B9B" xlink:href="#a"/><g filter="url(#b)" mask="url(#c)"><g transform="translate(12 12)"><mask id="e" fill="#fff"><use xlink:href="#d"/></mask><g stroke-linecap="square"><use fill="#F5FAFF" xlink:href="#d"/><circle stroke="#25283D" stroke-width="2" cx="20" cy="20" r="21"/></g><g mask="url(#e)"><g transform="translate(0 3)"><path d="M38.372 17.294c-.11 0-.223.009-.333.022a2.818 2.818 0 0 0-2.448-1.433c-.741 0-1.44.288-1.97.809a2.769 2.769 0 0 0-.695 1.113c-.03-.002-.06-.002-.09-.002-.534 0-1.025.183-1.415.489l-1.378-2.45a.497.497 0 0 0-.431-.255h-.002a.494.494 0 0 0-.432.25l-5.923 10.42-8.968-15.782a.498.498 0 0 0-.864 0L11.72 13.47a3.023 3.023 0 0 0-2.29-.564 3.368 3.368 0 0 0-2.961-1.782c-.888 0-1.721.342-2.352.965-.406.4-.697.882-.858 1.414a2.734 2.734 0 0 0-2.926 2.724 2.725 2.725 0 0 0 2.561 2.726c.03.003.062.005.093.005h5.611L3.124 28.59a.497.497 0 0 0 .866.492l4.31-7.58 1.651 1.605a.499.499 0 0 0 .757-.076l1.738-2.533 2.729 3.43a.495.495 0 0 0 .457.183.5.5 0 0 0 .391-.3l2.004-4.744 9.854 17.34a.498.498 0 0 0 .865-.492l-4.917-8.652 1.425-2.506 1.205 1.174a.493.493 0 0 0 .724-.032l1.4-1.617 2.89 1.72a.501.501 0 0 0 .673-.156l1.28-1.971 3.13 5.57a.498.498 0 0 0 .867-.486l-3.68-6.545 4.656-.004h.022l.027-.001a2.554 2.554 0 0 0 1.747-.764 2.543 2.543 0 0 0 .735-1.793 2.561 2.561 0 0 0-2.558-2.558zm-22.94 5.36l-2.627-3.3a.501.501 0 0 0-.407-.188.493.493 0 0 0-.392.216l-1.784 2.6-1.413-1.375.939-1.65H9.962l.032-.002a3.028 3.028 0 0 0 2.083-.909 3.03 3.03 0 0 0 .874-2.135c0-.624-.19-1.207-.513-1.69l1.418-2.495 3.553 6.251-1.977 4.678zm16.136 2.25l-2.837-1.688a.497.497 0 0 0-.632.102l-1.326 1.533-1.012-.984 3.847-6.772 1.143 2.034c-.14.296-.217.628-.217.978a2.3 2.3 0 0 0 2.054 2.289l.28.501-1.3 2.006z" fill="#25283D" fill-rule="nonzero"/><path d="M25.106 14.035c.762 0 1.515-.202 2.175-.582a.496.496 0 0 0 0-.86 3.364 3.364 0 0 1-1.678-2.904c0-1.192.643-2.305 1.678-2.903a.496.496 0 0 0 0-.86 4.346 4.346 0 0 0-6.521 3.763 4.35 4.35 0 0 0 4.346 4.346zm0-7.7c.316 0 .631.046.932.133A4.363 4.363 0 0 0 24.61 9.69c0 1.236.531 2.404 1.428 3.221a3.356 3.356 0 0 1-4.284-3.22 3.354 3.354 0 0 1 3.352-3.354z" fill="#606797" fill-rule="nonzero"/><g><use fill="#FFF" xlink:href="#f"/><circle stroke="#5D6389" cx="14" cy="4" r="3.5"/></g><path d="M30.606 12.084h.927v.928a.497.497 0 0 0 .995 0l.002-.928h.927a.497.497 0 0 0 0-.994h-.927v-.93a.497.497 0 0 0-.995 0v.928h-.927a.497.497 0 0 0-.002.996zM3.559 22.41a.497.497 0 0 0 0-.994h-.927v-.928a.497.497 0 0 0-.995 0v.928H.71a.497.497 0 0 0 0 .994h.927v.928a.497.497 0 0 0 .995 0v-.928h.927z" fill="#565B7D" fill-rule="nonzero"/><g><use fill="#F5FAFF" xlink:href="#g"/><path stroke="#595F8D" d="M33.303 18.358c.073-.502.303-.957.666-1.316a2.3 2.3 0 0 1 1.624-.666c.963 0 1.833.603 2.167 1.504a2.064 2.064 0 0 1 2.085 3.418 2.06 2.06 0 0 1-1.432.616H38.4l-5.687-.007a.383.383 0 0 0 .028.005 1.807 1.807 0 0 1 .096-3.614c.154 0 .307.019.466.06z"/></g><g><use fill="#F5FAFF" xlink:href="#h"/><path stroke="#595F8D" d="M9.987 18.46h-.028.028zm-6.982.002l-.138-.019c.044.01.047.011.078.014h.004l.022.002v-.445l-.026.444a2.224 2.224 0 0 1-1.488-.678 2.238 2.238 0 0 1 2.185-3.715 2.829 2.829 0 0 1 .823-1.625 2.844 2.844 0 0 1 2.005-.822c1.19 0 2.265.746 2.678 1.858a2.551 2.551 0 0 1 2.576 4.222 2.551 2.551 0 0 1-1.737.762l.076-.013-.12.015H3.004z"/></g></g></g></g></g></g></svg>