<svg width="64" height="64" viewBox="0 0 64 64" xmlns="http://www.w3.org/2000/svg" xmlns:xlink="http://www.w3.org/1999/xlink"><title>difficulty</title><defs><rect id="a" width="64" height="64" rx="24"/><filter x="-20%" y="-20%" width="140%" height="140%" filterUnits="objectBoundingBox" id="b"><feOffset in="SourceAlpha" result="shadowOffsetOuter1"/><feGaussianBlur stdDeviation="2" in="shadowOffsetOuter1" result="shadowBlurOuter1"/><feColorMatrix values="0 0 0 0 0.2 0 0 0 0 0.2 0 0 0 0 0.2 0 0 0 0.3 0" in="shadowBlurOuter1" result="shadowMatrixOuter1"/><feMerge><feMergeNode in="shadowMatrixOuter1"/><feMergeNode in="SourceGraphic"/></feMerge></filter><circle id="d" cx="20" cy="20" r="20"/></defs><g fill="none" fill-rule="evenodd"><mask id="c" fill="#fff"><use xlink:href="#a"/></mask><use fill="#FC979F" xlink:href="#a"/><g filter="url(#b)" mask="url(#c)"><g transform="translate(12 12)"><mask id="e" fill="#fff"><use xlink:href="#d"/></mask><g stroke-linecap="square"><use fill="#FFF3F4" xlink:href="#d"/><circle stroke="#D95E67" stroke-width="2" cx="20" cy="20" r="21"/></g><g fill-rule="nonzero" mask="url(#e)"><path d="M22.313 4.282A2.895 2.895 0 1 1 21 9.922a2.896 2.896 0 1 1 1.313-5.64m-1.967 11.376a8.936 8.936 0 0 1-.397-.284c-1.19-.9-1.84-1.796-2.012-2.05a1.29 1.29 0 0 1 1.07-2.001c.435 0 .838.217 1.077.58a4.987 4.987 0 0 0 .32.401c.12.14.29.318.5.513.14-1.156-.35-2.363-1.312-2.603a2.41 2.41 0 0 0-1.303.06c-.466-.902-3.371-6.028-7.335-2.259-2.06 1.957-.203 3.96.398 3.96.6 0-4.12 1.63-2.231 6.18 1.888 4.549 5.738 3.978 6.253 2.863.06-.13.148-.376.254-.706.289.725.776 2.25.774 4.223-.003 1.923-.444 4.267-1.996 6.852a1.61 1.61 0 0 0 2.757 1.662c1.873-3.104 2.461-6.086 2.458-8.514a15.438 15.438 0 0 0-.184-2.361l3.137 1.836 1.065 5.63a1.61 1.61 0 1 0 3.164-.599l-1.202-6.35a1.608 1.608 0 0 0-.768-1.09l-4.78-2.8c-.016-1.047.118-2.128.293-3.143zm-7.45-5.286a1.08 1.08 0 1 1 2.161-.002 1.08 1.08 0 0 1-2.161.002zm-1.202-.527a1.861 1.861 0 0 1 3.563-.753l-.173.174a1.57 1.57 0 1 0-2.172 2.196l-.09.094a1.863 1.863 0 0 1-1.128-1.71z" fill="#FF7781"/><path fill="#D95E67" d="M35.559 27.495l-6.351 3.949-7.552.858-5.407 2.404-5.279 1.029-6.564 5.407H45V23.805z"/><path d="M27.618 17.242l2.258 12.164.696-.13-2.263-12.187c-.087.038-.18.068-.278.085-.14.027-.275.048-.413.068zm-7.408-4.768a6.348 6.348 0 0 1-.271-.331c-.029-.038-.048-.067-.06-.083a.108.108 0 0 1-.01-.014l-.002-.002a1.03 1.03 0 0 0-1.723 1.13c.044.066.675 1.025 1.958 1.996a9.57 9.57 0 0 0 5.829 1.945h.008c.645 0 1.325-.06 2.042-.191a1.03 1.03 0 1 0-.374-2.025 9.224 9.224 0 0 1-1.668.157 7.495 7.495 0 0 1-4.595-1.53 7.844 7.844 0 0 1-1.134-1.052z" fill="#FF7781"/></g></g></g></g></svg>