<svg width="64" height="64" viewBox="0 0 64 64" xmlns="http://www.w3.org/2000/svg"><title>distance</title><defs><filter x="-15%" y="-15%" width="130%" height="130%" filterUnits="objectBoundingBox" id="a"><feOffset in="SourceAlpha" result="shadowOffsetOuter1"/><feGaussianBlur stdDeviation="2" in="shadowOffsetOuter1" result="shadowBlurOuter1"/><feColorMatrix values="0 0 0 0 0.2 0 0 0 0 0.2 0 0 0 0 0.2 0 0 0 0.3 0" in="shadowBlurOuter1" result="shadowMatrixOuter1"/><feMerge><feMergeNode in="shadowMatrixOuter1"/><feMergeNode in="SourceGraphic"/></feMerge></filter></defs><g fill="none" fill-rule="evenodd"><rect fill="#BBBB68" width="64" height="64" rx="24"/><g filter="url(#a)" transform="translate(12 12)"><path d="M39.47.776c-.235-.179-.529-.239-.764-.12l-12.353 4.06L14 .656h-.589L.766 4.777a.897.897 0 0 0-.589.836v33.433c0 .298.118.537.353.716a.94.94 0 0 0 .53.18c.117 0 .176 0 .294-.06l12.353-4.06 12.353 4.06c.059 0 .176.06.294.06s.176 0 .294-.06l12.588-4.06a.897.897 0 0 0 .589-.836V1.552c.058-.298-.118-.597-.353-.776z" fill="#73733C"/><path d="M1.941 6.328l10.883-3.582v16.836c-.765.537-1.412 1.134-1.942 1.91-.294.418-.176.956.177 1.254a.94.94 0 0 0 .53.18c.293 0 .529-.12.705-.359.177-.239.353-.418.53-.657v12.418L1.94 37.91V6.328z" fill="#FFFFD1" fill-rule="nonzero"/><path d="M14.588 20.597c.06-.06.118-.06.177-.12.47-.238.647-.716.411-1.193a.937.937 0 0 0-.588-.478V2.746l.824.299v9.433c0 .477.412.895.882.895.47 0 .882-.418.882-.895V3.582l.765.239v5.672c0 .477.412.895.883.895.47 0 .882-.418.882-.895V4.418l.765.239v1.97c0 .477.411.895.882.895.47 0 .882-.418.882-.895V5.194l3.236 1.075v11.283c-.118 0-.236.06-.353.06-.47.06-.824.537-.706 1.015.059.418.47.716.882.716h.235v18.448l-.823-.18v-6.089c0-.477-.412-.895-.882-.895a.873.873 0 0 0-.883.895v5.493l-.765-.239V34.03c0-.478-.411-.896-.882-.896-.47 0-.882.418-.882.896v2.209l-5.883-1.91V20.596h.06zm23.53 13.672L27.235 37.85V18.985c.647-.239 1.294-.478 1.883-.776.411-.239.647-.776.411-1.194-.235-.418-.764-.657-1.176-.418-.353.18-.706.299-1.118.478V6.328l10.883-3.582V34.27z" fill="#FFFFD1"/><path d="M7.353 29.06c-.856 0-1.53.683-1.53 1.567 0 .884.674 1.567 1.53 1.567s1.53-.683 1.53-1.567c0-.884-.674-1.567-1.53-1.567z" stroke="#CBCB6D" stroke-width="2"/><path d="M32 11.701c.176.18.412.24.647.24.235 0 .47-.06.647-.24l.824-.835.823.835c.177.18.412.24.647.24.236 0 .47-.06.647-.24a.875.875 0 0 0 0-1.253l-.94-.776.823-.836a.875.875 0 0 0 0-1.254.844.844 0 0 0-1.236 0l-.823.776-.824-.836a.844.844 0 0 0-1.235 0 .875.875 0 0 0 0 1.254l.824.836-.824.836c-.294.358-.294.955 0 1.253zM10.294 24.537c-.47-.12-.941.18-1.059.717C9 26.388 9 27.224 9 27.224c0 .477.412.895.882.895.47 0 .883-.418.883-.895 0 0 0-.657.176-1.552.118-.597-.176-1.075-.647-1.135zm11.294-4.776c.47 0 .883-.418.883-.895 0-.478-.412-.896-.883-.896-.47 0-1 0-1.53-.06a13.95 13.95 0 0 0-2.234 0 .96.96 0 0 0-.824.956c.059.477.47.895.941.835a11.14 11.14 0 0 1 2 0c.53.06 1.118.06 1.647.06zm10.06-3.642c.234 0 .47-.119.646-.298.824-.896 1.118-1.672 1.177-1.731.176-.478 0-.956-.471-1.194-.47-.18-.941 0-1.176.477 0 0-.236.537-.824 1.194-.353.358-.294.955.059 1.254a.712.712 0 0 0 .588.298z" fill="#CBCB6D" fill-rule="nonzero"/></g></g></svg>