<svg width="64" height="64" viewBox="0 0 64 64" xmlns="http://www.w3.org/2000/svg" xmlns:xlink="http://www.w3.org/1999/xlink"><title>people</title><defs><rect id="a" width="64" height="64" rx="24"/><filter x="-20%" y="-20%" width="140%" height="140%" filterUnits="objectBoundingBox" id="b"><feOffset in="SourceAlpha" result="shadowOffsetOuter1"/><feGaussianBlur stdDeviation="2" in="shadowOffsetOuter1" result="shadowBlurOuter1"/><feColorMatrix values="0 0 0 0 0.2 0 0 0 0 0.2 0 0 0 0 0.2 0 0 0 0.3 0" in="shadowBlurOuter1" result="shadowMatrixOuter1"/><feMerge><feMergeNode in="shadowMatrixOuter1"/><feMergeNode in="SourceGraphic"/></feMerge></filter><circle id="d" cx="20" cy="20" r="20"/><path d="M25.885 5.528c0 2.914-2.357 5.272-5.314 5.272-2.956 0-5.313-2.358-5.313-5.272A5.286 5.286 0 0 1 20.571.214a5.312 5.312 0 0 1 5.314 5.314z" id="f"/><path d="M38.058 5.528a5.241 5.241 0 0 1-5.272 5.272c-2.957 0-5.314-2.358-5.314-5.272 0-2.957 2.314-5.314 5.272-5.314a5.312 5.312 0 0 1 5.314 5.314z" id="g"/><path d="M13.67 5.528A5.24 5.24 0 0 1 8.4 10.8c-2.957 0-5.314-2.358-5.314-5.272C3.085 2.57 5.401.214 8.357.214a5.312 5.312 0 0 1 5.314 5.314z" id="h"/></defs><g fill="none" fill-rule="evenodd"><mask id="c" fill="#fff"><use xlink:href="#a"/></mask><use fill="#CCC" xlink:href="#a"/><g filter="url(#b)" mask="url(#c)"><g transform="translate(12 12)"><mask id="e" fill="#fff"><use xlink:href="#d"/></mask><g stroke-linecap="square"><use fill="#F4F4F4" xlink:href="#d"/><circle stroke="#585858" stroke-width="2" cx="20" cy="20" r="21"/></g><g fill-rule="nonzero" mask="url(#e)"><g transform="translate(-1 14)"><use fill="#AEAEAE" fill-rule="evenodd" xlink:href="#f"/><path stroke="#AEAEAE" stroke-width="2" d="M24.885 5.528a4.312 4.312 0 0 0-4.314-4.314 4.286 4.286 0 0 0-4.313 4.314c0 2.367 1.915 4.272 4.313 4.272 2.4 0 4.314-1.905 4.314-4.272z"/></g><g transform="translate(-1 14)"><use fill="#AEAEAE" fill-rule="evenodd" xlink:href="#g"/><path stroke="#AEAEAE" stroke-width="2" d="M37.058 5.528a4.312 4.312 0 0 0-4.314-4.314c-2.395 0-4.272 1.898-4.272 4.314 0 2.367 1.915 4.272 4.314 4.272a4.242 4.242 0 0 0 4.272-4.272z"/></g><path d="M-.742 33.157v4.2a3.44 3.44 0 0 0 3.428 3.429h8.786c.214 1.67 1.67 3 3.385 3h9.385c1.758 0 3.17-1.33 3.385-3h9.214c1.671 0 3-1.33 3-3l.002-4.63a6.42 6.42 0 0 0-6.429-6.428H30.03c-1.67 0-3.214.643-4.414 1.758-1.157-1.072-2.7-1.758-4.415-1.758h-3.385c-1.714 0-3.258.686-4.415 1.758-1.2-1.115-2.742-1.758-4.414-1.758H5.6c-3.43 0-6.343 2.871-6.343 6.429zm34.199-4.715a4.7 4.7 0 0 1 4.714 4.715v4.629c0 .728-.558 1.285-1.286 1.285h-9.214v-5.914a6.342 6.342 0 0 0-.943-3.343c.901-.858 2.058-1.372 3.344-1.372h3.385zm-15.556 0h3.385A4.7 4.7 0 0 1 26 33.157v7.2a1.72 1.72 0 0 1-1.714 1.714H14.9a1.72 1.72 0 0 1-1.714-1.714v-7.2a4.7 4.7 0 0 1 4.714-4.715zm-12.215 0h3.385c1.243 0 2.443.514 3.344 1.372a6.33 6.33 0 0 0-.943 3.343v5.914H2.686a1.72 1.72 0 0 1-1.714-1.714v-4.2c0-2.613 2.143-4.714 4.714-4.714z" fill="#585858"/><g transform="translate(-1 14)"><use fill="#AEAEAE" fill-rule="evenodd" xlink:href="#h"/><path stroke="#AEAEAE" stroke-width="2" d="M12.67 5.528a4.312 4.312 0 0 0-4.313-4.314c-2.393 0-4.272 1.9-4.272 4.314C4.085 7.895 6 9.8 8.4 9.8a4.24 4.24 0 0 0 4.272-4.272z"/></g></g></g></g></g></svg>