<svg width="64" height="64" viewBox="0 0 64 64" xmlns="http://www.w3.org/2000/svg"><title>time</title><defs><filter x="-16.7%" y="-15%" width="133.3%" height="130%" filterUnits="objectBoundingBox" id="a"><feOffset in="SourceAlpha" result="shadowOffsetOuter1"/><feGaussianBlur stdDeviation="2" in="shadowOffsetOuter1" result="shadowBlurOuter1"/><feColorMatrix values="0 0 0 0 0.2 0 0 0 0 0.2 0 0 0 0 0.2 0 0 0 0.3 0" in="shadowBlurOuter1" result="shadowMatrixOuter1"/><feMerge><feMergeNode in="shadowMatrixOuter1"/><feMergeNode in="SourceGraphic"/></feMerge></filter></defs><g fill="none" fill-rule="evenodd"><rect fill="#E8B982" width="64" height="64" rx="24"/><g filter="url(#a)" transform="translate(14 12)"><ellipse fill="#FFEDD2" cx="18" cy="22.15" rx="15" ry="15.15"/><path d="M14.8.002a1.31 1.31 0 0 0-.907.439c-.234.264-.355.61-.336.963.017.354.174.686.432.922.26.238.6.361.948.342h1.75v1.833C7.647 5.184.5 12.867.5 22.223c0 8.48 5.869 15.586 13.713 17.347.35.107.728.06 1.044-.127.316-.188.54-.502.617-.865a1.342 1.342 0 0 0-.205-1.046 1.309 1.309 0 0 0-.896-.56c-6.661-1.494-11.648-7.515-11.648-14.75 0-8.36 6.645-15.11 14.875-15.11 3.638 0 6.974 1.32 9.557 3.514l-.862.875a1.35 1.35 0 0 0-.055 1.944 1.305 1.305 0 0 0 1.915-.07l.847-.86a15.152 15.152 0 0 1 3.405 8.375h-1.245a1.308 1.308 0 0 0-1.044.44 1.338 1.338 0 0 0-.336.962c.017.355.174.686.432.922.26.238.6.361.948.342h1.258a15.018 15.018 0 0 1-3.431 8.347l-.834-.847a1.304 1.304 0 0 0-1.08-.403 1.32 1.32 0 0 0-1.101.889 1.35 1.35 0 0 0 .321 1.389l.834.847a14.796 14.796 0 0 1-8.216 3.417V36a1.343 1.343 0 0 0-.378-.955 1.297 1.297 0 0 0-1.87 0 1.343 1.343 0 0 0-.377.955v2.667c0 .736.588 1.333 1.312 1.333 9.65 0 17.5-7.975 17.5-17.777 0-9.356-7.147-17.04-16.187-17.722V2.668h1.75a1.3 1.3 0 0 0 .94-.384c.25-.25.39-.592.39-.95 0-.357-.14-.699-.39-.949a1.3 1.3 0 0 0-.94-.384h-6.125a1.795 1.795 0 0 0-.137 0z" fill="#94724B" fill-rule="nonzero"/><path d="M17.986 7.974a1.3 1.3 0 0 1 .947.396c.25.255.386.604.38.965v9.124a4.018 4.018 0 0 1 2.624 3.764c0 2.193-1.779 4-3.937 4-2.159 0-3.938-1.807-3.938-4a4.018 4.018 0 0 1 2.625-3.764V9.335c-.007-.356.127-.7.37-.957.244-.255.579-.4.93-.404zM18 20.89c-.74 0-1.313.581-1.313 1.333s.573 1.333 1.313 1.333 1.312-.581 1.312-1.333S18.74 20.89 18 20.89z" fill="#BD966A"/></g></g></svg>