<svg width="82" height="83" viewBox="0 0 82 83" xmlns="http://www.w3.org/2000/svg" xmlns:xlink="http://www.w3.org/1999/xlink"><title>Altitude</title><defs><radialGradient cy="0%" fx="50%" fy="0%" r="100%" id="c"><stop stop-color="#AE8A61" offset="0%"/><stop stop-color="#73733C" offset="100%"/></radialGradient><rect id="b" width="72" height="72" rx="36"/><filter x="-8.3%" y="-8.3%" width="116.7%" height="116.7%" filterUnits="objectBoundingBox" id="a"><feOffset in="SourceAlpha" result="shadowOffsetOuter1"/><feGaussianBlur stdDeviation="2" in="shadowOffsetOuter1" result="shadowBlurOuter1"/><feComposite in="shadowBlurOuter1" in2="SourceAlpha" operator="out" result="shadowBlurOuter1"/><feColorMatrix values="0 0 0 0 0.2 0 0 0 0 0.2 0 0 0 0 0.2 0 0 0 0.3 0" in="shadowBlurOuter1"/></filter></defs><g transform="translate(5 6)" fill="none" fill-rule="evenodd"><use fill="#000" filter="url(#a)" xlink:href="#b"/><use fill="#FFF" xlink:href="#b"/><rect stroke="url(#c)" stroke-width="3" x="1.5" y="1.5" width="69" height="69" rx="34.5"/><path d="M31.871 23.933l-10 14.51-2.252-3.34c-.24-.373-.868-.409-1.148-.066-3.57 4.159-7.004 8.432-10.596 12.568.385.28.709.62 1.038.962 3.323-3.074 6.652-6.139 9.978-9.21.986 1.456 1.966 2.914 2.958 4.364 3.504-5.125 7.047-10.228 10.574-15.338 4.537 7.258 9.492 14.048 14.46 20.554l3.002-11.15c.51.162 1.016.332 1.524.502h3.312c2.747 3.409 5.52 6.798 8.256 10.211.352-.316.75-.557 1.148-.807-2.829-4.42-5.652-8.844-8.476-13.266a.73.73 0 0 0-.86-.282l-3.09 1.222-1.787-1.769c-.308-.31-.915-.228-1.126.154l-2.275 3.95-7.13-9.602a.712.712 0 0 0-.175-.176l-6.359-4.188c-.488-.226-.593-.08-.972.195l-.004.002zm.75 1.354l5.652 3.71L46 39.408c.283.376.97.327 1.192-.088l1.524-2.617-2.45 9.077c-4.762-6.814-9.92-13.167-13.752-19.987-3.537 5.155-7.091 10.3-10.64 15.45-.906-1.346-1.818-2.686-2.716-4.038-.98.901-1.958 1.805-2.936 2.706l2.738-3.252 2.296 3.403c.25.381.907.392 1.17.022l10.196-14.796zm16.932 9.95l1.456 1.44c-.64-.212-1.28-.423-1.92-.632l.464-.808zm5.21.415l1.412 2.225c-.258-.333-.528-.657-.794-.983h-3.708c.975-.42 2.186-.885 3.09-1.245v.003z" fill="#585858" fill-rule="nonzero"/></g></svg>