<svg width="82" height="83" viewBox="0 0 82 83" xmlns="http://www.w3.org/2000/svg" xmlns:xlink="http://www.w3.org/1999/xlink"><title>Beds</title><defs><radialGradient cy="0%" fx="50%" fy="0%" r="100%" id="c"><stop stop-color="#AE8A61" offset="0%"/><stop stop-color="#73733C" offset="100%"/></radialGradient><rect id="b" width="72" height="72" rx="36"/><filter x="-8.3%" y="-8.3%" width="116.7%" height="116.7%" filterUnits="objectBoundingBox" id="a"><feOffset in="SourceAlpha" result="shadowOffsetOuter1"/><feGaussianBlur stdDeviation="2" in="shadowOffsetOuter1" result="shadowBlurOuter1"/><feComposite in="shadowBlurOuter1" in2="SourceAlpha" operator="out" result="shadowBlurOuter1"/><feColorMatrix values="0 0 0 0 0.2 0 0 0 0 0.2 0 0 0 0 0.2 0 0 0 0.3 0" in="shadowBlurOuter1"/></filter></defs><g transform="translate(5 6)" fill="none" fill-rule="evenodd"><use fill="#000" filter="url(#a)" xlink:href="#b"/><use fill="#FFF" xlink:href="#b"/><rect stroke="url(#c)" stroke-width="3" x="1.5" y="1.5" width="69" height="69" rx="34.5"/><path d="M53.038 32.784v-8.312A3.484 3.484 0 0 0 49.566 21H21.788a3.484 3.484 0 0 0-3.472 3.472v8.312A3.47 3.47 0 0 0 16 36.048v13.889a1.158 1.158 0 0 0 2.316 0v-3.473h34.722v3.473a1.158 1.158 0 0 0 2.315 0v-13.89a3.47 3.47 0 0 0-2.315-3.263zM20.63 24.472a1.16 1.16 0 0 1 1.157-1.156h27.778a1.16 1.16 0 0 1 1.156 1.156v8.101l-2.313.003v-5.788a1.161 1.161 0 0 0-1.159-1.157h-9.258a1.161 1.161 0 0 0-1.159 1.157v5.788H34.52v-5.788a1.161 1.161 0 0 0-1.159-1.157h-9.258a1.161 1.161 0 0 0-1.158 1.157v5.788H20.63v-8.104zm25.462 8.101l-6.944.003v-4.632h6.944v4.63zm-13.889.003H25.26v-4.632h6.944v4.632zM18.316 44.149v-8.101a1.161 1.161 0 0 1 1.156-1.16h32.41a1.161 1.161 0 0 1 1.156 1.16v8.1H18.316z" fill="#585858" fill-rule="nonzero"/></g></svg>