<svg width="82" height="83" viewBox="0 0 82 83" xmlns="http://www.w3.org/2000/svg" xmlns:xlink="http://www.w3.org/1999/xlink"><title>Cooking</title><defs><radialGradient cy="0%" fx="50%" fy="0%" r="100%" id="c"><stop stop-color="#AE8A61" offset="0%"/><stop stop-color="#73733C" offset="100%"/></radialGradient><rect id="b" width="72" height="72" rx="36"/><filter x="-8.3%" y="-8.3%" width="116.7%" height="116.7%" filterUnits="objectBoundingBox" id="a"><feOffset in="SourceAlpha" result="shadowOffsetOuter1"/><feGaussianBlur stdDeviation="2" in="shadowOffsetOuter1" result="shadowBlurOuter1"/><feComposite in="shadowBlurOuter1" in2="SourceAlpha" operator="out" result="shadowBlurOuter1"/><feColorMatrix values="0 0 0 0 0.2 0 0 0 0 0.2 0 0 0 0 0.2 0 0 0 0.3 0" in="shadowBlurOuter1"/></filter></defs><g transform="translate(5 6)" fill="none" fill-rule="evenodd"><use fill="#000" filter="url(#a)" xlink:href="#b"/><use fill="#FFF" xlink:href="#b"/><rect stroke="url(#c)" stroke-width="3" x="1.5" y="1.5" width="69" height="69" rx="34.5"/><path d="M36.001 23.625c-6.627 0-12.019 5.392-12.019 12.02 0 6.626 5.392 12.016 12.02 12.016 6.626 0 12.016-5.39 12.016-12.017S42.628 23.625 36 23.625zm0 22.333c-5.687 0-10.316-4.627-10.316-10.314 0-5.69 4.63-10.316 10.316-10.316 5.69 0 10.314 4.627 10.314 10.316 0 5.687-4.625 10.314-10.314 10.314zm0-18.033c-4.256 0-7.718 3.463-7.718 7.72 0 4.253 3.462 7.715 7.718 7.715 4.254 0 7.716-3.462 7.716-7.716.003-4.256-3.462-7.719-7.716-7.719zm0 13.734a6.021 6.021 0 0 1-6.015-6.013c0-3.318 2.7-6.017 6.015-6.017 3.316 0 6.015 2.7 6.015 6.015a6.022 6.022 0 0 1-6.015 6.015zm17.577-17.73c-2.712 0-4.92 2.655-4.92 5.92 0 2.914 1.762 5.336 4.069 5.824v11.686h1.703V35.671c2.309-.488 4.07-2.91 4.07-5.825 0-3.262-2.21-5.917-4.922-5.917zm0 10.134c-1.774 0-3.216-1.89-3.216-4.214 0-2.325 1.442-4.217 3.216-4.217 1.775 0 3.219 1.89 3.219 4.217 0 2.324-1.444 4.214-3.219 4.214zm-32.79-3.718v-5.564h1.704v5.564c0 2.542-1.573 4.665-3.645 5.128V47.36h-1.703V35.473c-2.074-.465-3.644-2.586-3.644-5.128v-5.564h1.703v5.564c0 1.566.817 2.895 1.941 3.352V24.78h1.703v8.916c1.125-.455 1.941-1.786 1.941-3.352z" fill="#585858" fill-rule="nonzero"/></g></svg>